M48
; DRILL file {KiCad 7.0.11-7.0.11~ubuntu22.04.1} date Sun 06 Oct 2024 14:21:25 BST
; FORMAT={-:-/ absolute / metric / decimal}
; #@! TF.CreationDate,2024-10-06T14:21:25+01:00
; #@! TF.GenerationSoftware,Kicad,Pcbnew,7.0.11-7.0.11~ubuntu22.04.1
; #@! TF.FileFunction,Plated,1,2,PTH
FMAT,2
METRIC
; #@! TA.AperFunction,Plated,PTH,ViaDrill
T1C0.400
; #@! TA.AperFunction,Plated,PTH,ComponentDrill
T2C0.600
; #@! TA.AperFunction,Plated,PTH,ComponentDrill
T3C1.092
; #@! TA.AperFunction,Plated,PTH,ComponentDrill
T4C1.100
; #@! TA.AperFunction,Plated,PTH,ComponentDrill
T5C3.500
%
G90
G05
T1
X54.568Y-90.153
X54.768Y-93.753
X55.468Y-90.153
X55.668Y-93.753
X56.368Y-90.153
X56.568Y-93.753
X58.618Y-68.453
X59.182Y-76.708
X61.668Y-70.253
X67.437Y-82.169
X67.818Y-72.771
X67.945Y-83.82
X67.945Y-86.995
X72.771Y-80.645
X73.152Y-72.771
X78.474Y-108.116
X78.674Y-111.716
X79.374Y-108.116
X79.574Y-111.716
X80.274Y-108.116
X80.474Y-111.716
X82.804Y-67.691
X82.968Y-81.153
X85.868Y-85.653
X87.868Y-86.753
X91.368Y-87.853
X91.821Y-81.026
X93.568Y-86.353
X93.668Y-89.453
X94.275Y-102.952
X94.335Y-104.892
X94.344Y-111.994
X96.168Y-87.128
X96.168Y-88.578
X99.868Y-91.553
X100.106Y-103.786
X100.155Y-105.321
X101.068Y-86.578
X103.868Y-87.953
X106.468Y-93.853
X106.468Y-98.053
X106.476Y-107.997
X107.315Y-83.693
X111.952Y-87.369
X112.055Y-101.657
T3
X78.968Y-89.548
X78.968Y-94.653
T4
X55.88Y-58.42
X60.48Y-58.42
X97.508Y-59.69
X102.108Y-59.69
T5
X45.212Y-58.801
X45.593Y-124.206
X110.568Y-58.928
X110.871Y-124.206
T2
G00X109.018Y-90.313
M15
G01X110.118Y-90.313
M16
G05
G00X109.018Y-98.953
M15
G01X110.118Y-98.953
M16
G05
G00X113.448Y-90.313
M15
G01X114.048Y-90.313
M16
G05
G00X113.448Y-98.953
M15
G01X114.048Y-98.953
M16
G05
M30
