G04 #@! TF.GenerationSoftware,KiCad,Pcbnew,7.0.11-7.0.11~ubuntu22.04.1*
G04 #@! TF.CreationDate,2024-10-06T14:21:29+01:00*
G04 #@! TF.ProjectId,jubileev2,6a756269-6c65-4657-9632-2e6b69636164,rev?*
G04 #@! TF.SameCoordinates,Original*
G04 #@! TF.FileFunction,Soldermask,Top*
G04 #@! TF.FilePolarity,Negative*
%FSLAX46Y46*%
G04 Gerber Fmt 4.6, Leading zero omitted, Abs format (unit mm)*
G04 Created by KiCad (PCBNEW 7.0.11-7.0.11~ubuntu22.04.1) date 2024-10-06 14:21:29*
%MOMM*%
%LPD*%
G01*
G04 APERTURE LIST*
G04 Aperture macros list*
%AMRoundRect*
0 Rectangle with rounded corners*
0 $1 Rounding radius*
0 $2 $3 $4 $5 $6 $7 $8 $9 X,Y pos of 4 corners*
0 Add a 4 corners polygon primitive as box body*
4,1,4,$2,$3,$4,$5,$6,$7,$8,$9,$2,$3,0*
0 Add four circle primitives for the rounded corners*
1,1,$1+$1,$2,$3*
1,1,$1+$1,$4,$5*
1,1,$1+$1,$6,$7*
1,1,$1+$1,$8,$9*
0 Add four rect primitives between the rounded corners*
20,1,$1+$1,$2,$3,$4,$5,0*
20,1,$1+$1,$4,$5,$6,$7,0*
20,1,$1+$1,$6,$7,$8,$9,0*
20,1,$1+$1,$8,$9,$2,$3,0*%
G04 Aperture macros list end*
%ADD10RoundRect,0.250000X0.250000X0.475000X-0.250000X0.475000X-0.250000X-0.475000X0.250000X-0.475000X0*%
%ADD11RoundRect,0.250000X-0.475000X0.250000X-0.475000X-0.250000X0.475000X-0.250000X0.475000X0.250000X0*%
%ADD12RoundRect,0.243750X0.243750X0.456250X-0.243750X0.456250X-0.243750X-0.456250X0.243750X-0.456250X0*%
%ADD13RoundRect,0.250000X-0.625000X0.375000X-0.625000X-0.375000X0.625000X-0.375000X0.625000X0.375000X0*%
%ADD14RoundRect,0.249999X-0.800001X-0.800001X0.800001X-0.800001X0.800001X0.800001X-0.800001X0.800001X0*%
%ADD15C,2.100000*%
%ADD16R,1.500000X2.000000*%
%ADD17R,3.800000X2.000000*%
%ADD18RoundRect,0.249998X-0.262502X-0.450002X0.262502X-0.450002X0.262502X0.450002X-0.262502X0.450002X0*%
%ADD19RoundRect,0.249998X0.450002X-0.262502X0.450002X0.262502X-0.450002X0.262502X-0.450002X-0.262502X0*%
%ADD20RoundRect,0.249999X0.800001X0.800001X-0.800001X0.800001X-0.800001X-0.800001X0.800001X-0.800001X0*%
%ADD21R,2.000000X1.500000*%
%ADD22R,2.000000X3.800000*%
%ADD23C,3.900000*%
%ADD24C,7.000000*%
%ADD25R,1.200000X0.900000*%
%ADD26C,1.638000*%
%ADD27R,1.550000X0.700000*%
%ADD28R,2.000000X0.900000*%
%ADD29R,0.900000X2.000000*%
%ADD30R,5.000000X5.000000*%
%ADD31RoundRect,0.250000X0.475000X-0.250000X0.475000X0.250000X-0.475000X0.250000X-0.475000X-0.250000X0*%
%ADD32R,1.050000X0.450000*%
%ADD33RoundRect,0.249998X-0.450002X0.262502X-0.450002X-0.262502X0.450002X-0.262502X0.450002X0.262502X0*%
%ADD34C,0.650000*%
%ADD35R,1.450000X0.600000*%
%ADD36R,1.450000X0.300000*%
%ADD37RoundRect,0.150000X-0.825000X-0.150000X0.825000X-0.150000X0.825000X0.150000X-0.825000X0.150000X0*%
%ADD38RoundRect,0.150000X-0.587500X-0.150000X0.587500X-0.150000X0.587500X0.150000X-0.587500X0.150000X0*%
%ADD39RoundRect,0.250000X-0.850000X-0.350000X0.850000X-0.350000X0.850000X0.350000X-0.850000X0.350000X0*%
%ADD40RoundRect,0.249997X-2.950003X-2.650003X2.950003X-2.650003X2.950003X2.650003X-2.950003X2.650003X0*%
%ADD41RoundRect,0.225000X-0.225000X-0.375000X0.225000X-0.375000X0.225000X0.375000X-0.225000X0.375000X0*%
%ADD42RoundRect,0.100000X-0.637500X-0.100000X0.637500X-0.100000X0.637500X0.100000X-0.637500X0.100000X0*%
G04 APERTURE END LIST*
D10*
G04 #@! TO.C,C1*
X47879000Y-101981000D03*
X45979000Y-101981000D03*
G04 #@! TD*
G04 #@! TO.C,C2*
X57390305Y-115994183D03*
X55490305Y-115994183D03*
G04 #@! TD*
G04 #@! TO.C,C3*
X47879000Y-90551000D03*
X45979000Y-90551000D03*
G04 #@! TD*
D11*
G04 #@! TO.C,C5*
X65659000Y-67691000D03*
X65659000Y-69591000D03*
G04 #@! TD*
G04 #@! TO.C,C12*
X102108000Y-68580000D03*
X102108000Y-70480000D03*
G04 #@! TD*
D12*
G04 #@! TO.C,D1*
X59690000Y-98425000D03*
X57815000Y-98425000D03*
G04 #@! TD*
G04 #@! TO.C,D4*
X65629000Y-82169000D03*
X63754000Y-82169000D03*
G04 #@! TD*
D13*
G04 #@! TO.C,F1*
X106461285Y-103128799D03*
X106461285Y-105928799D03*
G04 #@! TD*
D14*
G04 #@! TO.C,J3*
X55880000Y-58420000D03*
D15*
X60480000Y-58420000D03*
G04 #@! TD*
D16*
G04 #@! TO.C,Q3*
X49897000Y-73914000D03*
X52197000Y-73914000D03*
D17*
X52197000Y-67614000D03*
D16*
X54497000Y-73914000D03*
G04 #@! TD*
D18*
G04 #@! TO.C,R1*
X57912000Y-95123000D03*
X59737000Y-95123000D03*
G04 #@! TD*
D19*
G04 #@! TO.C,R8*
X106807000Y-65532000D03*
X106807000Y-63707000D03*
G04 #@! TD*
G04 #@! TO.C,R9*
X102108000Y-65579000D03*
X102108000Y-63754000D03*
G04 #@! TD*
D18*
G04 #@! TO.C,R10*
X49864000Y-76708000D03*
X51689000Y-76708000D03*
G04 #@! TD*
G04 #@! TO.C,R11*
X50245000Y-58420000D03*
X52070000Y-58420000D03*
G04 #@! TD*
G04 #@! TO.C,R12*
X63707000Y-77851000D03*
X65532000Y-77851000D03*
G04 #@! TD*
D20*
G04 #@! TO.C,SW3*
X102108000Y-59690000D03*
D15*
X97508000Y-59690000D03*
G04 #@! TD*
D21*
G04 #@! TO.C,U1*
X46482000Y-94206000D03*
X46482000Y-96506000D03*
D22*
X52782000Y-96506000D03*
D21*
X46482000Y-98806000D03*
G04 #@! TD*
G04 #@! TO.C,U2*
X46482000Y-105777000D03*
X46482000Y-108077000D03*
D22*
X52782000Y-108077000D03*
D21*
X46482000Y-110377000D03*
G04 #@! TD*
D23*
G04 #@! TO.C,H1*
X45212000Y-58801000D03*
D24*
X45212000Y-58801000D03*
G04 #@! TD*
D23*
G04 #@! TO.C,H2*
X110871000Y-124206000D03*
D24*
X110871000Y-124206000D03*
G04 #@! TD*
D23*
G04 #@! TO.C,H3*
X110568000Y-58928000D03*
D24*
X110568000Y-58928000D03*
G04 #@! TD*
D23*
G04 #@! TO.C,H4*
X45593000Y-124206000D03*
D24*
X45593000Y-124206000D03*
G04 #@! TD*
D25*
G04 #@! TO.C,D5*
X56515000Y-104777000D03*
X56515000Y-108077000D03*
G04 #@! TD*
D11*
G04 #@! TO.C,C8*
X65659000Y-71755000D03*
X65659000Y-73655000D03*
G04 #@! TD*
D19*
G04 #@! TO.C,R2*
X62230000Y-73580000D03*
X62230000Y-71755000D03*
G04 #@! TD*
D26*
G04 #@! TO.C,S2*
X78968000Y-94653000D03*
X78968000Y-89548000D03*
G04 #@! TD*
D27*
G04 #@! TO.C,IC2*
X99637000Y-73660000D03*
X99637000Y-74930000D03*
X99637000Y-76200000D03*
X99637000Y-77470000D03*
X99637000Y-78740000D03*
X99637000Y-80010000D03*
X99637000Y-81280000D03*
X105087000Y-81280000D03*
X105087000Y-80010000D03*
X105087000Y-78740000D03*
X105087000Y-77470000D03*
X105087000Y-76200000D03*
X105087000Y-74930000D03*
X105087000Y-73660000D03*
G04 #@! TD*
D28*
G04 #@! TO.C,ANT1*
X70336000Y-66372000D03*
X70336000Y-67642000D03*
X70336000Y-68912000D03*
X70336000Y-70182000D03*
X70336000Y-71452000D03*
X70336000Y-72722000D03*
X70336000Y-73992000D03*
X70336000Y-75262000D03*
X70336000Y-76532000D03*
X70336000Y-77802000D03*
X70336000Y-79072000D03*
X70336000Y-80342000D03*
X70336000Y-81612000D03*
X70336000Y-82882000D03*
D29*
X73121000Y-83882000D03*
X74391000Y-83882000D03*
X75661000Y-83882000D03*
X76931000Y-83882000D03*
X78201000Y-83882000D03*
X79471000Y-83882000D03*
X80741000Y-83882000D03*
X82011000Y-83882000D03*
X83281000Y-83882000D03*
X84551000Y-83882000D03*
D28*
X87336000Y-82882000D03*
X87336000Y-81612000D03*
X87336000Y-80342000D03*
X87336000Y-79072000D03*
X87336000Y-77802000D03*
X87336000Y-76532000D03*
X87336000Y-75262000D03*
X87336000Y-73992000D03*
X87336000Y-72722000D03*
X87336000Y-71452000D03*
X87336000Y-70182000D03*
X87336000Y-68912000D03*
X87336000Y-67642000D03*
X87336000Y-66372000D03*
D30*
X77836000Y-73872000D03*
G04 #@! TD*
D10*
G04 #@! TO.C,C6*
X109215000Y-73660000D03*
X107315000Y-73660000D03*
G04 #@! TD*
D31*
G04 #@! TO.C,C4*
X63168000Y-69603000D03*
X63168000Y-67703000D03*
G04 #@! TD*
D11*
G04 #@! TO.C,C10*
X105868000Y-87853000D03*
X105868000Y-89753000D03*
G04 #@! TD*
D32*
G04 #@! TO.C,Q1*
X97568000Y-86653000D03*
X97568000Y-87303000D03*
X97568000Y-87953000D03*
X99668000Y-87953000D03*
X99668000Y-87303000D03*
X99668000Y-86653000D03*
G04 #@! TD*
D19*
G04 #@! TO.C,R3*
X112055316Y-105607719D03*
X112055316Y-103782719D03*
G04 #@! TD*
D33*
G04 #@! TO.C,R4*
X111951926Y-83498855D03*
X111951926Y-85323855D03*
G04 #@! TD*
D34*
G04 #@! TO.C,USB1*
X110098000Y-97523000D03*
X110098000Y-91743000D03*
D35*
X108653000Y-97858000D03*
X108653000Y-97083000D03*
D36*
X108653000Y-96383000D03*
X108653000Y-95883000D03*
X108653000Y-95383000D03*
X108653000Y-94883000D03*
X108653000Y-94383000D03*
X108653000Y-93883000D03*
X108653000Y-93383000D03*
X108653000Y-92883000D03*
D35*
X108653000Y-92183000D03*
X108653000Y-91408000D03*
G04 #@! TD*
D10*
G04 #@! TO.C,C11*
X107318000Y-85753000D03*
X105418000Y-85753000D03*
G04 #@! TD*
D37*
G04 #@! TO.C,U3*
X97843000Y-89758000D03*
X97843000Y-91028000D03*
X97843000Y-92298000D03*
X97843000Y-93568000D03*
X97843000Y-94838000D03*
X97843000Y-96108000D03*
X97843000Y-97378000D03*
X97843000Y-98648000D03*
X102793000Y-98648000D03*
X102793000Y-97378000D03*
X102793000Y-96108000D03*
X102793000Y-94838000D03*
X102793000Y-93568000D03*
X102793000Y-92298000D03*
X102793000Y-91028000D03*
X102793000Y-89758000D03*
G04 #@! TD*
D38*
G04 #@! TO.C,Q2*
X89254091Y-103242522D03*
X89254091Y-105142522D03*
X91129091Y-104192522D03*
G04 #@! TD*
D39*
G04 #@! TO.C,U5*
X62447136Y-116854381D03*
D40*
X68747136Y-119134381D03*
D39*
X62447136Y-121414381D03*
G04 #@! TD*
D31*
G04 #@! TO.C,C13*
X62452882Y-113593837D03*
X62452882Y-111693837D03*
G04 #@! TD*
D41*
G04 #@! TO.C,D6*
X54747271Y-121913330D03*
X58047271Y-121913330D03*
G04 #@! TD*
D11*
G04 #@! TO.C,C7*
X106494434Y-110076071D03*
X106494434Y-111976071D03*
G04 #@! TD*
D42*
G04 #@! TO.C,U4*
X97090399Y-102290797D03*
X97090399Y-102940797D03*
X97090399Y-103590797D03*
X97090399Y-104240797D03*
X97090399Y-104890797D03*
X97090399Y-105540797D03*
X97090399Y-106190797D03*
X97090399Y-106840797D03*
X102815399Y-106840797D03*
X102815399Y-106190797D03*
X102815399Y-105540797D03*
X102815399Y-104890797D03*
X102815399Y-104240797D03*
X102815399Y-103590797D03*
X102815399Y-102940797D03*
X102815399Y-102290797D03*
G04 #@! TD*
M02*
