G04 #@! TF.GenerationSoftware,KiCad,Pcbnew,7.0.11-7.0.11~ubuntu22.04.1*
G04 #@! TF.CreationDate,2024-10-06T14:21:28+01:00*
G04 #@! TF.ProjectId,jubileev2,6a756269-6c65-4657-9632-2e6b69636164,rev?*
G04 #@! TF.SameCoordinates,Original*
G04 #@! TF.FileFunction,Legend,Top*
G04 #@! TF.FilePolarity,Positive*
%FSLAX46Y46*%
G04 Gerber Fmt 4.6, Leading zero omitted, Abs format (unit mm)*
G04 Created by KiCad (PCBNEW 7.0.11-7.0.11~ubuntu22.04.1) date 2024-10-06 14:21:28*
%MOMM*%
%LPD*%
G01*
G04 APERTURE LIST*
%ADD10C,0.125000*%
%ADD11C,0.100000*%
%ADD12C,0.150000*%
%ADD13C,0.254000*%
%ADD14C,0.120000*%
%ADD15C,0.200000*%
G04 APERTURE END LIST*
D10*
X98552000Y-72821190D02*
X98575810Y-72845000D01*
X98575810Y-72845000D02*
X98552000Y-72868809D01*
X98552000Y-72868809D02*
X98528191Y-72845000D01*
X98528191Y-72845000D02*
X98552000Y-72821190D01*
X98552000Y-72821190D02*
X98552000Y-72868809D01*
D11*
X102742592Y-127369836D02*
X102742592Y-126836502D01*
X102742592Y-126988883D02*
X102780687Y-126912693D01*
X102780687Y-126912693D02*
X102818782Y-126874598D01*
X102818782Y-126874598D02*
X102894973Y-126836502D01*
X102894973Y-126836502D02*
X102971163Y-126836502D01*
X103618782Y-126569836D02*
X103237830Y-126569836D01*
X103237830Y-126569836D02*
X103199734Y-126950788D01*
X103199734Y-126950788D02*
X103237830Y-126912693D01*
X103237830Y-126912693D02*
X103314020Y-126874598D01*
X103314020Y-126874598D02*
X103504496Y-126874598D01*
X103504496Y-126874598D02*
X103580687Y-126912693D01*
X103580687Y-126912693D02*
X103618782Y-126950788D01*
X103618782Y-126950788D02*
X103656877Y-127026979D01*
X103656877Y-127026979D02*
X103656877Y-127217455D01*
X103656877Y-127217455D02*
X103618782Y-127293645D01*
X103618782Y-127293645D02*
X103580687Y-127331741D01*
X103580687Y-127331741D02*
X103504496Y-127369836D01*
X103504496Y-127369836D02*
X103314020Y-127369836D01*
X103314020Y-127369836D02*
X103237830Y-127331741D01*
X103237830Y-127331741D02*
X103199734Y-127293645D01*
X103999735Y-127065074D02*
X104609259Y-127065074D01*
X104952115Y-126646026D02*
X104990211Y-126607931D01*
X104990211Y-126607931D02*
X105066401Y-126569836D01*
X105066401Y-126569836D02*
X105256877Y-126569836D01*
X105256877Y-126569836D02*
X105333068Y-126607931D01*
X105333068Y-126607931D02*
X105371163Y-126646026D01*
X105371163Y-126646026D02*
X105409258Y-126722217D01*
X105409258Y-126722217D02*
X105409258Y-126798407D01*
X105409258Y-126798407D02*
X105371163Y-126912693D01*
X105371163Y-126912693D02*
X104914020Y-127369836D01*
X104914020Y-127369836D02*
X105409258Y-127369836D01*
D12*
X78209569Y-124702819D02*
X78447664Y-125702819D01*
X78447664Y-125702819D02*
X78638140Y-124988533D01*
X78638140Y-124988533D02*
X78828616Y-125702819D01*
X78828616Y-125702819D02*
X79066712Y-124702819D01*
X79447664Y-125702819D02*
X79447664Y-125036152D01*
X79447664Y-124702819D02*
X79400045Y-124750438D01*
X79400045Y-124750438D02*
X79447664Y-124798057D01*
X79447664Y-124798057D02*
X79495283Y-124750438D01*
X79495283Y-124750438D02*
X79447664Y-124702819D01*
X79447664Y-124702819D02*
X79447664Y-124798057D01*
X80066711Y-125702819D02*
X79971473Y-125655200D01*
X79971473Y-125655200D02*
X79923854Y-125559961D01*
X79923854Y-125559961D02*
X79923854Y-124702819D01*
X80590521Y-125702819D02*
X80495283Y-125655200D01*
X80495283Y-125655200D02*
X80447664Y-125559961D01*
X80447664Y-125559961D02*
X80447664Y-124702819D01*
X82066712Y-125179009D02*
X81733379Y-125179009D01*
X81733379Y-125702819D02*
X81733379Y-124702819D01*
X81733379Y-124702819D02*
X82209569Y-124702819D01*
X83019093Y-125036152D02*
X83019093Y-125702819D01*
X82590522Y-125036152D02*
X82590522Y-125559961D01*
X82590522Y-125559961D02*
X82638141Y-125655200D01*
X82638141Y-125655200D02*
X82733379Y-125702819D01*
X82733379Y-125702819D02*
X82876236Y-125702819D01*
X82876236Y-125702819D02*
X82971474Y-125655200D01*
X82971474Y-125655200D02*
X83019093Y-125607580D01*
X83495284Y-125702819D02*
X83495284Y-125036152D01*
X83495284Y-125226628D02*
X83542903Y-125131390D01*
X83542903Y-125131390D02*
X83590522Y-125083771D01*
X83590522Y-125083771D02*
X83685760Y-125036152D01*
X83685760Y-125036152D02*
X83780998Y-125036152D01*
X84114332Y-125036152D02*
X84114332Y-125702819D01*
X84114332Y-125131390D02*
X84161951Y-125083771D01*
X84161951Y-125083771D02*
X84257189Y-125036152D01*
X84257189Y-125036152D02*
X84400046Y-125036152D01*
X84400046Y-125036152D02*
X84495284Y-125083771D01*
X84495284Y-125083771D02*
X84542903Y-125179009D01*
X84542903Y-125179009D02*
X84542903Y-125702819D01*
X85400046Y-125655200D02*
X85304808Y-125702819D01*
X85304808Y-125702819D02*
X85114332Y-125702819D01*
X85114332Y-125702819D02*
X85019094Y-125655200D01*
X85019094Y-125655200D02*
X84971475Y-125559961D01*
X84971475Y-125559961D02*
X84971475Y-125179009D01*
X84971475Y-125179009D02*
X85019094Y-125083771D01*
X85019094Y-125083771D02*
X85114332Y-125036152D01*
X85114332Y-125036152D02*
X85304808Y-125036152D01*
X85304808Y-125036152D02*
X85400046Y-125083771D01*
X85400046Y-125083771D02*
X85447665Y-125179009D01*
X85447665Y-125179009D02*
X85447665Y-125274247D01*
X85447665Y-125274247D02*
X84971475Y-125369485D01*
X86019094Y-125702819D02*
X85923856Y-125655200D01*
X85923856Y-125655200D02*
X85876237Y-125559961D01*
X85876237Y-125559961D02*
X85876237Y-124702819D01*
X86542904Y-125702819D02*
X86447666Y-125655200D01*
X86447666Y-125655200D02*
X86400047Y-125559961D01*
X86400047Y-125559961D02*
X86400047Y-124702819D01*
X87685762Y-125321866D02*
X88447667Y-125321866D01*
X89590524Y-125036152D02*
X89781000Y-125702819D01*
X89781000Y-125702819D02*
X89971476Y-125226628D01*
X89971476Y-125226628D02*
X90161952Y-125702819D01*
X90161952Y-125702819D02*
X90352428Y-125036152D01*
X90733381Y-125702819D02*
X90733381Y-125036152D01*
X90733381Y-124702819D02*
X90685762Y-124750438D01*
X90685762Y-124750438D02*
X90733381Y-124798057D01*
X90733381Y-124798057D02*
X90781000Y-124750438D01*
X90781000Y-124750438D02*
X90733381Y-124702819D01*
X90733381Y-124702819D02*
X90733381Y-124798057D01*
X91352428Y-125702819D02*
X91257190Y-125655200D01*
X91257190Y-125655200D02*
X91209571Y-125559961D01*
X91209571Y-125559961D02*
X91209571Y-124702819D01*
X91876238Y-125702819D02*
X91781000Y-125655200D01*
X91781000Y-125655200D02*
X91733381Y-125559961D01*
X91733381Y-125559961D02*
X91733381Y-124702819D01*
X92114334Y-125036152D02*
X92495286Y-125036152D01*
X92257191Y-125702819D02*
X92257191Y-124845676D01*
X92257191Y-124845676D02*
X92304810Y-124750438D01*
X92304810Y-124750438D02*
X92400048Y-124702819D01*
X92400048Y-124702819D02*
X92495286Y-124702819D01*
X93257191Y-125036152D02*
X93257191Y-125702819D01*
X92828620Y-125036152D02*
X92828620Y-125559961D01*
X92828620Y-125559961D02*
X92876239Y-125655200D01*
X92876239Y-125655200D02*
X92971477Y-125702819D01*
X92971477Y-125702819D02*
X93114334Y-125702819D01*
X93114334Y-125702819D02*
X93209572Y-125655200D01*
X93209572Y-125655200D02*
X93257191Y-125607580D01*
X93733382Y-125702819D02*
X93733382Y-125036152D01*
X93733382Y-125226628D02*
X93781001Y-125131390D01*
X93781001Y-125131390D02*
X93828620Y-125083771D01*
X93828620Y-125083771D02*
X93923858Y-125036152D01*
X93923858Y-125036152D02*
X94019096Y-125036152D01*
X94352430Y-125036152D02*
X94352430Y-125702819D01*
X94352430Y-125131390D02*
X94400049Y-125083771D01*
X94400049Y-125083771D02*
X94495287Y-125036152D01*
X94495287Y-125036152D02*
X94638144Y-125036152D01*
X94638144Y-125036152D02*
X94733382Y-125083771D01*
X94733382Y-125083771D02*
X94781001Y-125179009D01*
X94781001Y-125179009D02*
X94781001Y-125702819D01*
X95638144Y-125655200D02*
X95542906Y-125702819D01*
X95542906Y-125702819D02*
X95352430Y-125702819D01*
X95352430Y-125702819D02*
X95257192Y-125655200D01*
X95257192Y-125655200D02*
X95209573Y-125559961D01*
X95209573Y-125559961D02*
X95209573Y-125179009D01*
X95209573Y-125179009D02*
X95257192Y-125083771D01*
X95257192Y-125083771D02*
X95352430Y-125036152D01*
X95352430Y-125036152D02*
X95542906Y-125036152D01*
X95542906Y-125036152D02*
X95638144Y-125083771D01*
X95638144Y-125083771D02*
X95685763Y-125179009D01*
X95685763Y-125179009D02*
X95685763Y-125274247D01*
X95685763Y-125274247D02*
X95209573Y-125369485D01*
X96257192Y-125702819D02*
X96161954Y-125655200D01*
X96161954Y-125655200D02*
X96114335Y-125559961D01*
X96114335Y-125559961D02*
X96114335Y-124702819D01*
X96781002Y-125702819D02*
X96685764Y-125655200D01*
X96685764Y-125655200D02*
X96638145Y-125559961D01*
X96638145Y-125559961D02*
X96638145Y-124702819D01*
X97161955Y-125607580D02*
X97209574Y-125655200D01*
X97209574Y-125655200D02*
X97161955Y-125702819D01*
X97161955Y-125702819D02*
X97114336Y-125655200D01*
X97114336Y-125655200D02*
X97161955Y-125607580D01*
X97161955Y-125607580D02*
X97161955Y-125702819D01*
X98066716Y-125655200D02*
X97971478Y-125702819D01*
X97971478Y-125702819D02*
X97781002Y-125702819D01*
X97781002Y-125702819D02*
X97685764Y-125655200D01*
X97685764Y-125655200D02*
X97638145Y-125607580D01*
X97638145Y-125607580D02*
X97590526Y-125512342D01*
X97590526Y-125512342D02*
X97590526Y-125226628D01*
X97590526Y-125226628D02*
X97638145Y-125131390D01*
X97638145Y-125131390D02*
X97685764Y-125083771D01*
X97685764Y-125083771D02*
X97781002Y-125036152D01*
X97781002Y-125036152D02*
X97971478Y-125036152D01*
X97971478Y-125036152D02*
X98066716Y-125083771D01*
X98638145Y-125702819D02*
X98542907Y-125655200D01*
X98542907Y-125655200D02*
X98495288Y-125607580D01*
X98495288Y-125607580D02*
X98447669Y-125512342D01*
X98447669Y-125512342D02*
X98447669Y-125226628D01*
X98447669Y-125226628D02*
X98495288Y-125131390D01*
X98495288Y-125131390D02*
X98542907Y-125083771D01*
X98542907Y-125083771D02*
X98638145Y-125036152D01*
X98638145Y-125036152D02*
X98781002Y-125036152D01*
X98781002Y-125036152D02*
X98876240Y-125083771D01*
X98876240Y-125083771D02*
X98923859Y-125131390D01*
X98923859Y-125131390D02*
X98971478Y-125226628D01*
X98971478Y-125226628D02*
X98971478Y-125512342D01*
X98971478Y-125512342D02*
X98923859Y-125607580D01*
X98923859Y-125607580D02*
X98876240Y-125655200D01*
X98876240Y-125655200D02*
X98781002Y-125702819D01*
X98781002Y-125702819D02*
X98638145Y-125702819D01*
X99400050Y-125702819D02*
X99400050Y-125036152D01*
X99400050Y-125131390D02*
X99447669Y-125083771D01*
X99447669Y-125083771D02*
X99542907Y-125036152D01*
X99542907Y-125036152D02*
X99685764Y-125036152D01*
X99685764Y-125036152D02*
X99781002Y-125083771D01*
X99781002Y-125083771D02*
X99828621Y-125179009D01*
X99828621Y-125179009D02*
X99828621Y-125702819D01*
X99828621Y-125179009D02*
X99876240Y-125083771D01*
X99876240Y-125083771D02*
X99971478Y-125036152D01*
X99971478Y-125036152D02*
X100114335Y-125036152D01*
X100114335Y-125036152D02*
X100209574Y-125083771D01*
X100209574Y-125083771D02*
X100257193Y-125179009D01*
X100257193Y-125179009D02*
X100257193Y-125702819D01*
X80042903Y-127312819D02*
X80042903Y-126312819D01*
X80042903Y-126789009D02*
X80614331Y-126789009D01*
X80614331Y-127312819D02*
X80614331Y-126312819D01*
X81519093Y-126646152D02*
X81519093Y-127312819D01*
X81090522Y-126646152D02*
X81090522Y-127169961D01*
X81090522Y-127169961D02*
X81138141Y-127265200D01*
X81138141Y-127265200D02*
X81233379Y-127312819D01*
X81233379Y-127312819D02*
X81376236Y-127312819D01*
X81376236Y-127312819D02*
X81471474Y-127265200D01*
X81471474Y-127265200D02*
X81519093Y-127217580D01*
X82423855Y-126646152D02*
X82423855Y-127455676D01*
X82423855Y-127455676D02*
X82376236Y-127550914D01*
X82376236Y-127550914D02*
X82328617Y-127598533D01*
X82328617Y-127598533D02*
X82233379Y-127646152D01*
X82233379Y-127646152D02*
X82090522Y-127646152D01*
X82090522Y-127646152D02*
X81995284Y-127598533D01*
X82423855Y-127265200D02*
X82328617Y-127312819D01*
X82328617Y-127312819D02*
X82138141Y-127312819D01*
X82138141Y-127312819D02*
X82042903Y-127265200D01*
X82042903Y-127265200D02*
X81995284Y-127217580D01*
X81995284Y-127217580D02*
X81947665Y-127122342D01*
X81947665Y-127122342D02*
X81947665Y-126836628D01*
X81947665Y-126836628D02*
X81995284Y-126741390D01*
X81995284Y-126741390D02*
X82042903Y-126693771D01*
X82042903Y-126693771D02*
X82138141Y-126646152D01*
X82138141Y-126646152D02*
X82328617Y-126646152D01*
X82328617Y-126646152D02*
X82423855Y-126693771D01*
X82900046Y-127312819D02*
X82900046Y-126312819D01*
X83328617Y-127312819D02*
X83328617Y-126789009D01*
X83328617Y-126789009D02*
X83280998Y-126693771D01*
X83280998Y-126693771D02*
X83185760Y-126646152D01*
X83185760Y-126646152D02*
X83042903Y-126646152D01*
X83042903Y-126646152D02*
X82947665Y-126693771D01*
X82947665Y-126693771D02*
X82900046Y-126741390D01*
X84471475Y-126312819D02*
X84709570Y-127312819D01*
X84709570Y-127312819D02*
X84900046Y-126598533D01*
X84900046Y-126598533D02*
X85090522Y-127312819D01*
X85090522Y-127312819D02*
X85328618Y-126312819D01*
X86090522Y-127265200D02*
X85995284Y-127312819D01*
X85995284Y-127312819D02*
X85804808Y-127312819D01*
X85804808Y-127312819D02*
X85709570Y-127265200D01*
X85709570Y-127265200D02*
X85661951Y-127169961D01*
X85661951Y-127169961D02*
X85661951Y-126789009D01*
X85661951Y-126789009D02*
X85709570Y-126693771D01*
X85709570Y-126693771D02*
X85804808Y-126646152D01*
X85804808Y-126646152D02*
X85995284Y-126646152D01*
X85995284Y-126646152D02*
X86090522Y-126693771D01*
X86090522Y-126693771D02*
X86138141Y-126789009D01*
X86138141Y-126789009D02*
X86138141Y-126884247D01*
X86138141Y-126884247D02*
X85661951Y-126979485D01*
X86709570Y-127312819D02*
X86614332Y-127265200D01*
X86614332Y-127265200D02*
X86566713Y-127169961D01*
X86566713Y-127169961D02*
X86566713Y-126312819D01*
X87233380Y-127312819D02*
X87138142Y-127265200D01*
X87138142Y-127265200D02*
X87090523Y-127169961D01*
X87090523Y-127169961D02*
X87090523Y-126312819D01*
X87566714Y-127265200D02*
X87661952Y-127312819D01*
X87661952Y-127312819D02*
X87852428Y-127312819D01*
X87852428Y-127312819D02*
X87947666Y-127265200D01*
X87947666Y-127265200D02*
X87995285Y-127169961D01*
X87995285Y-127169961D02*
X87995285Y-127122342D01*
X87995285Y-127122342D02*
X87947666Y-127027104D01*
X87947666Y-127027104D02*
X87852428Y-126979485D01*
X87852428Y-126979485D02*
X87709571Y-126979485D01*
X87709571Y-126979485D02*
X87614333Y-126931866D01*
X87614333Y-126931866D02*
X87566714Y-126836628D01*
X87566714Y-126836628D02*
X87566714Y-126789009D01*
X87566714Y-126789009D02*
X87614333Y-126693771D01*
X87614333Y-126693771D02*
X87709571Y-126646152D01*
X87709571Y-126646152D02*
X87852428Y-126646152D01*
X87852428Y-126646152D02*
X87947666Y-126693771D01*
X89185762Y-126931866D02*
X89947667Y-126931866D01*
X91614333Y-127265200D02*
X91519095Y-127312819D01*
X91519095Y-127312819D02*
X91328619Y-127312819D01*
X91328619Y-127312819D02*
X91233381Y-127265200D01*
X91233381Y-127265200D02*
X91185762Y-127217580D01*
X91185762Y-127217580D02*
X91138143Y-127122342D01*
X91138143Y-127122342D02*
X91138143Y-126836628D01*
X91138143Y-126836628D02*
X91185762Y-126741390D01*
X91185762Y-126741390D02*
X91233381Y-126693771D01*
X91233381Y-126693771D02*
X91328619Y-126646152D01*
X91328619Y-126646152D02*
X91519095Y-126646152D01*
X91519095Y-126646152D02*
X91614333Y-126693771D01*
X92042905Y-127312819D02*
X92042905Y-126646152D01*
X92042905Y-126836628D02*
X92090524Y-126741390D01*
X92090524Y-126741390D02*
X92138143Y-126693771D01*
X92138143Y-126693771D02*
X92233381Y-126646152D01*
X92233381Y-126646152D02*
X92328619Y-126646152D01*
X93090524Y-127312819D02*
X93090524Y-126789009D01*
X93090524Y-126789009D02*
X93042905Y-126693771D01*
X93042905Y-126693771D02*
X92947667Y-126646152D01*
X92947667Y-126646152D02*
X92757191Y-126646152D01*
X92757191Y-126646152D02*
X92661953Y-126693771D01*
X93090524Y-127265200D02*
X92995286Y-127312819D01*
X92995286Y-127312819D02*
X92757191Y-127312819D01*
X92757191Y-127312819D02*
X92661953Y-127265200D01*
X92661953Y-127265200D02*
X92614334Y-127169961D01*
X92614334Y-127169961D02*
X92614334Y-127074723D01*
X92614334Y-127074723D02*
X92661953Y-126979485D01*
X92661953Y-126979485D02*
X92757191Y-126931866D01*
X92757191Y-126931866D02*
X92995286Y-126931866D01*
X92995286Y-126931866D02*
X93090524Y-126884247D01*
X93566715Y-127312819D02*
X93566715Y-126312819D01*
X93566715Y-126693771D02*
X93661953Y-126646152D01*
X93661953Y-126646152D02*
X93852429Y-126646152D01*
X93852429Y-126646152D02*
X93947667Y-126693771D01*
X93947667Y-126693771D02*
X93995286Y-126741390D01*
X93995286Y-126741390D02*
X94042905Y-126836628D01*
X94042905Y-126836628D02*
X94042905Y-127122342D01*
X94042905Y-127122342D02*
X93995286Y-127217580D01*
X93995286Y-127217580D02*
X93947667Y-127265200D01*
X93947667Y-127265200D02*
X93852429Y-127312819D01*
X93852429Y-127312819D02*
X93661953Y-127312819D01*
X93661953Y-127312819D02*
X93566715Y-127265200D01*
X94614334Y-127312819D02*
X94519096Y-127265200D01*
X94519096Y-127265200D02*
X94471477Y-127169961D01*
X94471477Y-127169961D02*
X94471477Y-126312819D01*
X95423858Y-127312819D02*
X95423858Y-126789009D01*
X95423858Y-126789009D02*
X95376239Y-126693771D01*
X95376239Y-126693771D02*
X95281001Y-126646152D01*
X95281001Y-126646152D02*
X95090525Y-126646152D01*
X95090525Y-126646152D02*
X94995287Y-126693771D01*
X95423858Y-127265200D02*
X95328620Y-127312819D01*
X95328620Y-127312819D02*
X95090525Y-127312819D01*
X95090525Y-127312819D02*
X94995287Y-127265200D01*
X94995287Y-127265200D02*
X94947668Y-127169961D01*
X94947668Y-127169961D02*
X94947668Y-127074723D01*
X94947668Y-127074723D02*
X94995287Y-126979485D01*
X94995287Y-126979485D02*
X95090525Y-126931866D01*
X95090525Y-126931866D02*
X95328620Y-126931866D01*
X95328620Y-126931866D02*
X95423858Y-126884247D01*
X95900049Y-127312819D02*
X95900049Y-126312819D01*
X95900049Y-126693771D02*
X95995287Y-126646152D01*
X95995287Y-126646152D02*
X96185763Y-126646152D01*
X96185763Y-126646152D02*
X96281001Y-126693771D01*
X96281001Y-126693771D02*
X96328620Y-126741390D01*
X96328620Y-126741390D02*
X96376239Y-126836628D01*
X96376239Y-126836628D02*
X96376239Y-127122342D01*
X96376239Y-127122342D02*
X96328620Y-127217580D01*
X96328620Y-127217580D02*
X96281001Y-127265200D01*
X96281001Y-127265200D02*
X96185763Y-127312819D01*
X96185763Y-127312819D02*
X95995287Y-127312819D01*
X95995287Y-127312819D02*
X95900049Y-127265200D01*
X96804811Y-127217580D02*
X96852430Y-127265200D01*
X96852430Y-127265200D02*
X96804811Y-127312819D01*
X96804811Y-127312819D02*
X96757192Y-127265200D01*
X96757192Y-127265200D02*
X96804811Y-127217580D01*
X96804811Y-127217580D02*
X96804811Y-127312819D01*
X97709572Y-126646152D02*
X97709572Y-127312819D01*
X97281001Y-126646152D02*
X97281001Y-127169961D01*
X97281001Y-127169961D02*
X97328620Y-127265200D01*
X97328620Y-127265200D02*
X97423858Y-127312819D01*
X97423858Y-127312819D02*
X97566715Y-127312819D01*
X97566715Y-127312819D02*
X97661953Y-127265200D01*
X97661953Y-127265200D02*
X97709572Y-127217580D01*
X98185763Y-127312819D02*
X98185763Y-126312819D01*
X98281001Y-126931866D02*
X98566715Y-127312819D01*
X98566715Y-126646152D02*
X98185763Y-127027104D01*
X61041810Y-97262819D02*
X61660857Y-97262819D01*
X61660857Y-97262819D02*
X61327524Y-97643771D01*
X61327524Y-97643771D02*
X61470381Y-97643771D01*
X61470381Y-97643771D02*
X61565619Y-97691390D01*
X61565619Y-97691390D02*
X61613238Y-97739009D01*
X61613238Y-97739009D02*
X61660857Y-97834247D01*
X61660857Y-97834247D02*
X61660857Y-98072342D01*
X61660857Y-98072342D02*
X61613238Y-98167580D01*
X61613238Y-98167580D02*
X61565619Y-98215200D01*
X61565619Y-98215200D02*
X61470381Y-98262819D01*
X61470381Y-98262819D02*
X61184667Y-98262819D01*
X61184667Y-98262819D02*
X61089429Y-98215200D01*
X61089429Y-98215200D02*
X61041810Y-98167580D01*
X62089429Y-98167580D02*
X62137048Y-98215200D01*
X62137048Y-98215200D02*
X62089429Y-98262819D01*
X62089429Y-98262819D02*
X62041810Y-98215200D01*
X62041810Y-98215200D02*
X62089429Y-98167580D01*
X62089429Y-98167580D02*
X62089429Y-98262819D01*
X62470381Y-97262819D02*
X63089428Y-97262819D01*
X63089428Y-97262819D02*
X62756095Y-97643771D01*
X62756095Y-97643771D02*
X62898952Y-97643771D01*
X62898952Y-97643771D02*
X62994190Y-97691390D01*
X62994190Y-97691390D02*
X63041809Y-97739009D01*
X63041809Y-97739009D02*
X63089428Y-97834247D01*
X63089428Y-97834247D02*
X63089428Y-98072342D01*
X63089428Y-98072342D02*
X63041809Y-98167580D01*
X63041809Y-98167580D02*
X62994190Y-98215200D01*
X62994190Y-98215200D02*
X62898952Y-98262819D01*
X62898952Y-98262819D02*
X62613238Y-98262819D01*
X62613238Y-98262819D02*
X62518000Y-98215200D01*
X62518000Y-98215200D02*
X62470381Y-98167580D01*
X63375143Y-97262819D02*
X63708476Y-98262819D01*
X63708476Y-98262819D02*
X64041809Y-97262819D01*
X61184667Y-99872819D02*
X61184667Y-98872819D01*
X61184667Y-98872819D02*
X61565619Y-98872819D01*
X61565619Y-98872819D02*
X61660857Y-98920438D01*
X61660857Y-98920438D02*
X61708476Y-98968057D01*
X61708476Y-98968057D02*
X61756095Y-99063295D01*
X61756095Y-99063295D02*
X61756095Y-99206152D01*
X61756095Y-99206152D02*
X61708476Y-99301390D01*
X61708476Y-99301390D02*
X61660857Y-99349009D01*
X61660857Y-99349009D02*
X61565619Y-99396628D01*
X61565619Y-99396628D02*
X61184667Y-99396628D01*
X62089429Y-98872819D02*
X62327524Y-99872819D01*
X62327524Y-99872819D02*
X62518000Y-99158533D01*
X62518000Y-99158533D02*
X62708476Y-99872819D01*
X62708476Y-99872819D02*
X62946572Y-98872819D01*
X63898952Y-99872819D02*
X63565619Y-99396628D01*
X63327524Y-99872819D02*
X63327524Y-98872819D01*
X63327524Y-98872819D02*
X63708476Y-98872819D01*
X63708476Y-98872819D02*
X63803714Y-98920438D01*
X63803714Y-98920438D02*
X63851333Y-98968057D01*
X63851333Y-98968057D02*
X63898952Y-99063295D01*
X63898952Y-99063295D02*
X63898952Y-99206152D01*
X63898952Y-99206152D02*
X63851333Y-99301390D01*
X63851333Y-99301390D02*
X63803714Y-99349009D01*
X63803714Y-99349009D02*
X63708476Y-99396628D01*
X63708476Y-99396628D02*
X63327524Y-99396628D01*
D10*
X57467523Y-108238333D02*
X57848476Y-108238333D01*
X57657999Y-108428809D02*
X57657999Y-108047857D01*
X62801523Y-83092333D02*
X63182476Y-83092333D01*
X62991999Y-83282809D02*
X62991999Y-82901857D01*
X57057333Y-97726476D02*
X57057333Y-97345524D01*
X57247809Y-97536000D02*
X56866857Y-97536000D01*
D12*
X79445962Y-120019961D02*
X78874534Y-120019961D01*
X79160248Y-120019961D02*
X79160248Y-119019961D01*
X79160248Y-119019961D02*
X79065010Y-119162818D01*
X79065010Y-119162818D02*
X78969772Y-119258056D01*
X78969772Y-119258056D02*
X78874534Y-119305675D01*
X79922153Y-120019961D02*
X80112629Y-120019961D01*
X80112629Y-120019961D02*
X80207867Y-119972342D01*
X80207867Y-119972342D02*
X80255486Y-119924722D01*
X80255486Y-119924722D02*
X80350724Y-119781865D01*
X80350724Y-119781865D02*
X80398343Y-119591389D01*
X80398343Y-119591389D02*
X80398343Y-119210437D01*
X80398343Y-119210437D02*
X80350724Y-119115199D01*
X80350724Y-119115199D02*
X80303105Y-119067580D01*
X80303105Y-119067580D02*
X80207867Y-119019961D01*
X80207867Y-119019961D02*
X80017391Y-119019961D01*
X80017391Y-119019961D02*
X79922153Y-119067580D01*
X79922153Y-119067580D02*
X79874534Y-119115199D01*
X79874534Y-119115199D02*
X79826915Y-119210437D01*
X79826915Y-119210437D02*
X79826915Y-119448532D01*
X79826915Y-119448532D02*
X79874534Y-119543770D01*
X79874534Y-119543770D02*
X79922153Y-119591389D01*
X79922153Y-119591389D02*
X80017391Y-119639008D01*
X80017391Y-119639008D02*
X80207867Y-119639008D01*
X80207867Y-119639008D02*
X80303105Y-119591389D01*
X80303105Y-119591389D02*
X80350724Y-119543770D01*
X80350724Y-119543770D02*
X80398343Y-119448532D01*
X80874534Y-120019961D02*
X81065010Y-120019961D01*
X81065010Y-120019961D02*
X81160248Y-119972342D01*
X81160248Y-119972342D02*
X81207867Y-119924722D01*
X81207867Y-119924722D02*
X81303105Y-119781865D01*
X81303105Y-119781865D02*
X81350724Y-119591389D01*
X81350724Y-119591389D02*
X81350724Y-119210437D01*
X81350724Y-119210437D02*
X81303105Y-119115199D01*
X81303105Y-119115199D02*
X81255486Y-119067580D01*
X81255486Y-119067580D02*
X81160248Y-119019961D01*
X81160248Y-119019961D02*
X80969772Y-119019961D01*
X80969772Y-119019961D02*
X80874534Y-119067580D01*
X80874534Y-119067580D02*
X80826915Y-119115199D01*
X80826915Y-119115199D02*
X80779296Y-119210437D01*
X80779296Y-119210437D02*
X80779296Y-119448532D01*
X80779296Y-119448532D02*
X80826915Y-119543770D01*
X80826915Y-119543770D02*
X80874534Y-119591389D01*
X80874534Y-119591389D02*
X80969772Y-119639008D01*
X80969772Y-119639008D02*
X81160248Y-119639008D01*
X81160248Y-119639008D02*
X81255486Y-119591389D01*
X81255486Y-119591389D02*
X81303105Y-119543770D01*
X81303105Y-119543770D02*
X81350724Y-119448532D01*
X82207867Y-119019961D02*
X82017391Y-119019961D01*
X82017391Y-119019961D02*
X81922153Y-119067580D01*
X81922153Y-119067580D02*
X81874534Y-119115199D01*
X81874534Y-119115199D02*
X81779296Y-119258056D01*
X81779296Y-119258056D02*
X81731677Y-119448532D01*
X81731677Y-119448532D02*
X81731677Y-119829484D01*
X81731677Y-119829484D02*
X81779296Y-119924722D01*
X81779296Y-119924722D02*
X81826915Y-119972342D01*
X81826915Y-119972342D02*
X81922153Y-120019961D01*
X81922153Y-120019961D02*
X82112629Y-120019961D01*
X82112629Y-120019961D02*
X82207867Y-119972342D01*
X82207867Y-119972342D02*
X82255486Y-119924722D01*
X82255486Y-119924722D02*
X82303105Y-119829484D01*
X82303105Y-119829484D02*
X82303105Y-119591389D01*
X82303105Y-119591389D02*
X82255486Y-119496151D01*
X82255486Y-119496151D02*
X82207867Y-119448532D01*
X82207867Y-119448532D02*
X82112629Y-119400913D01*
X82112629Y-119400913D02*
X81922153Y-119400913D01*
X81922153Y-119400913D02*
X81826915Y-119448532D01*
X81826915Y-119448532D02*
X81779296Y-119496151D01*
X81779296Y-119496151D02*
X81731677Y-119591389D01*
X83445963Y-119972342D02*
X83588820Y-120019961D01*
X83588820Y-120019961D02*
X83826915Y-120019961D01*
X83826915Y-120019961D02*
X83922153Y-119972342D01*
X83922153Y-119972342D02*
X83969772Y-119924722D01*
X83969772Y-119924722D02*
X84017391Y-119829484D01*
X84017391Y-119829484D02*
X84017391Y-119734246D01*
X84017391Y-119734246D02*
X83969772Y-119639008D01*
X83969772Y-119639008D02*
X83922153Y-119591389D01*
X83922153Y-119591389D02*
X83826915Y-119543770D01*
X83826915Y-119543770D02*
X83636439Y-119496151D01*
X83636439Y-119496151D02*
X83541201Y-119448532D01*
X83541201Y-119448532D02*
X83493582Y-119400913D01*
X83493582Y-119400913D02*
X83445963Y-119305675D01*
X83445963Y-119305675D02*
X83445963Y-119210437D01*
X83445963Y-119210437D02*
X83493582Y-119115199D01*
X83493582Y-119115199D02*
X83541201Y-119067580D01*
X83541201Y-119067580D02*
X83636439Y-119019961D01*
X83636439Y-119019961D02*
X83874534Y-119019961D01*
X83874534Y-119019961D02*
X84017391Y-119067580D01*
X84303106Y-119353294D02*
X84684058Y-119353294D01*
X84445963Y-119019961D02*
X84445963Y-119877103D01*
X84445963Y-119877103D02*
X84493582Y-119972342D01*
X84493582Y-119972342D02*
X84588820Y-120019961D01*
X84588820Y-120019961D02*
X84684058Y-120019961D01*
X85160249Y-120019961D02*
X85065011Y-119972342D01*
X85065011Y-119972342D02*
X85017392Y-119924722D01*
X85017392Y-119924722D02*
X84969773Y-119829484D01*
X84969773Y-119829484D02*
X84969773Y-119543770D01*
X84969773Y-119543770D02*
X85017392Y-119448532D01*
X85017392Y-119448532D02*
X85065011Y-119400913D01*
X85065011Y-119400913D02*
X85160249Y-119353294D01*
X85160249Y-119353294D02*
X85303106Y-119353294D01*
X85303106Y-119353294D02*
X85398344Y-119400913D01*
X85398344Y-119400913D02*
X85445963Y-119448532D01*
X85445963Y-119448532D02*
X85493582Y-119543770D01*
X85493582Y-119543770D02*
X85493582Y-119829484D01*
X85493582Y-119829484D02*
X85445963Y-119924722D01*
X85445963Y-119924722D02*
X85398344Y-119972342D01*
X85398344Y-119972342D02*
X85303106Y-120019961D01*
X85303106Y-120019961D02*
X85160249Y-120019961D01*
X86350725Y-119972342D02*
X86255487Y-120019961D01*
X86255487Y-120019961D02*
X86065011Y-120019961D01*
X86065011Y-120019961D02*
X85969773Y-119972342D01*
X85969773Y-119972342D02*
X85922154Y-119924722D01*
X85922154Y-119924722D02*
X85874535Y-119829484D01*
X85874535Y-119829484D02*
X85874535Y-119543770D01*
X85874535Y-119543770D02*
X85922154Y-119448532D01*
X85922154Y-119448532D02*
X85969773Y-119400913D01*
X85969773Y-119400913D02*
X86065011Y-119353294D01*
X86065011Y-119353294D02*
X86255487Y-119353294D01*
X86255487Y-119353294D02*
X86350725Y-119400913D01*
X86779297Y-120019961D02*
X86779297Y-119019961D01*
X86874535Y-119639008D02*
X87160249Y-120019961D01*
X87160249Y-119353294D02*
X86779297Y-119734246D01*
X89065011Y-118972342D02*
X88207869Y-120258056D01*
X90445964Y-119019961D02*
X90445964Y-119734246D01*
X90445964Y-119734246D02*
X90398345Y-119877103D01*
X90398345Y-119877103D02*
X90303107Y-119972342D01*
X90303107Y-119972342D02*
X90160250Y-120019961D01*
X90160250Y-120019961D02*
X90065012Y-120019961D01*
X91350726Y-119353294D02*
X91350726Y-120019961D01*
X90922155Y-119353294D02*
X90922155Y-119877103D01*
X90922155Y-119877103D02*
X90969774Y-119972342D01*
X90969774Y-119972342D02*
X91065012Y-120019961D01*
X91065012Y-120019961D02*
X91207869Y-120019961D01*
X91207869Y-120019961D02*
X91303107Y-119972342D01*
X91303107Y-119972342D02*
X91350726Y-119924722D01*
X91826917Y-120019961D02*
X91826917Y-119019961D01*
X91826917Y-119400913D02*
X91922155Y-119353294D01*
X91922155Y-119353294D02*
X92112631Y-119353294D01*
X92112631Y-119353294D02*
X92207869Y-119400913D01*
X92207869Y-119400913D02*
X92255488Y-119448532D01*
X92255488Y-119448532D02*
X92303107Y-119543770D01*
X92303107Y-119543770D02*
X92303107Y-119829484D01*
X92303107Y-119829484D02*
X92255488Y-119924722D01*
X92255488Y-119924722D02*
X92207869Y-119972342D01*
X92207869Y-119972342D02*
X92112631Y-120019961D01*
X92112631Y-120019961D02*
X91922155Y-120019961D01*
X91922155Y-120019961D02*
X91826917Y-119972342D01*
X92731679Y-120019961D02*
X92731679Y-119353294D01*
X92731679Y-119019961D02*
X92684060Y-119067580D01*
X92684060Y-119067580D02*
X92731679Y-119115199D01*
X92731679Y-119115199D02*
X92779298Y-119067580D01*
X92779298Y-119067580D02*
X92731679Y-119019961D01*
X92731679Y-119019961D02*
X92731679Y-119115199D01*
X93350726Y-120019961D02*
X93255488Y-119972342D01*
X93255488Y-119972342D02*
X93207869Y-119877103D01*
X93207869Y-119877103D02*
X93207869Y-119019961D01*
X94112631Y-119972342D02*
X94017393Y-120019961D01*
X94017393Y-120019961D02*
X93826917Y-120019961D01*
X93826917Y-120019961D02*
X93731679Y-119972342D01*
X93731679Y-119972342D02*
X93684060Y-119877103D01*
X93684060Y-119877103D02*
X93684060Y-119496151D01*
X93684060Y-119496151D02*
X93731679Y-119400913D01*
X93731679Y-119400913D02*
X93826917Y-119353294D01*
X93826917Y-119353294D02*
X94017393Y-119353294D01*
X94017393Y-119353294D02*
X94112631Y-119400913D01*
X94112631Y-119400913D02*
X94160250Y-119496151D01*
X94160250Y-119496151D02*
X94160250Y-119591389D01*
X94160250Y-119591389D02*
X93684060Y-119686627D01*
X94969774Y-119972342D02*
X94874536Y-120019961D01*
X94874536Y-120019961D02*
X94684060Y-120019961D01*
X94684060Y-120019961D02*
X94588822Y-119972342D01*
X94588822Y-119972342D02*
X94541203Y-119877103D01*
X94541203Y-119877103D02*
X94541203Y-119496151D01*
X94541203Y-119496151D02*
X94588822Y-119400913D01*
X94588822Y-119400913D02*
X94684060Y-119353294D01*
X94684060Y-119353294D02*
X94874536Y-119353294D01*
X94874536Y-119353294D02*
X94969774Y-119400913D01*
X94969774Y-119400913D02*
X95017393Y-119496151D01*
X95017393Y-119496151D02*
X95017393Y-119591389D01*
X95017393Y-119591389D02*
X94541203Y-119686627D01*
X96684060Y-120019961D02*
X96207870Y-120019961D01*
X96207870Y-120019961D02*
X96207870Y-119019961D01*
X97017394Y-120019961D02*
X97017394Y-119353294D01*
X97017394Y-119019961D02*
X96969775Y-119067580D01*
X96969775Y-119067580D02*
X97017394Y-119115199D01*
X97017394Y-119115199D02*
X97065013Y-119067580D01*
X97065013Y-119067580D02*
X97017394Y-119019961D01*
X97017394Y-119019961D02*
X97017394Y-119115199D01*
X97493584Y-119353294D02*
X97493584Y-120019961D01*
X97493584Y-119448532D02*
X97541203Y-119400913D01*
X97541203Y-119400913D02*
X97636441Y-119353294D01*
X97636441Y-119353294D02*
X97779298Y-119353294D01*
X97779298Y-119353294D02*
X97874536Y-119400913D01*
X97874536Y-119400913D02*
X97922155Y-119496151D01*
X97922155Y-119496151D02*
X97922155Y-120019961D01*
X98779298Y-119972342D02*
X98684060Y-120019961D01*
X98684060Y-120019961D02*
X98493584Y-120019961D01*
X98493584Y-120019961D02*
X98398346Y-119972342D01*
X98398346Y-119972342D02*
X98350727Y-119877103D01*
X98350727Y-119877103D02*
X98350727Y-119496151D01*
X98350727Y-119496151D02*
X98398346Y-119400913D01*
X98398346Y-119400913D02*
X98493584Y-119353294D01*
X98493584Y-119353294D02*
X98684060Y-119353294D01*
X98684060Y-119353294D02*
X98779298Y-119400913D01*
X98779298Y-119400913D02*
X98826917Y-119496151D01*
X98826917Y-119496151D02*
X98826917Y-119591389D01*
X98826917Y-119591389D02*
X98350727Y-119686627D01*
X84565010Y-121629961D02*
X84565010Y-120629961D01*
X84565010Y-120629961D02*
X84803105Y-120629961D01*
X84803105Y-120629961D02*
X84945962Y-120677580D01*
X84945962Y-120677580D02*
X85041200Y-120772818D01*
X85041200Y-120772818D02*
X85088819Y-120868056D01*
X85088819Y-120868056D02*
X85136438Y-121058532D01*
X85136438Y-121058532D02*
X85136438Y-121201389D01*
X85136438Y-121201389D02*
X85088819Y-121391865D01*
X85088819Y-121391865D02*
X85041200Y-121487103D01*
X85041200Y-121487103D02*
X84945962Y-121582342D01*
X84945962Y-121582342D02*
X84803105Y-121629961D01*
X84803105Y-121629961D02*
X84565010Y-121629961D01*
X85707867Y-121629961D02*
X85612629Y-121582342D01*
X85612629Y-121582342D02*
X85565010Y-121534722D01*
X85565010Y-121534722D02*
X85517391Y-121439484D01*
X85517391Y-121439484D02*
X85517391Y-121153770D01*
X85517391Y-121153770D02*
X85565010Y-121058532D01*
X85565010Y-121058532D02*
X85612629Y-121010913D01*
X85612629Y-121010913D02*
X85707867Y-120963294D01*
X85707867Y-120963294D02*
X85850724Y-120963294D01*
X85850724Y-120963294D02*
X85945962Y-121010913D01*
X85945962Y-121010913D02*
X85993581Y-121058532D01*
X85993581Y-121058532D02*
X86041200Y-121153770D01*
X86041200Y-121153770D02*
X86041200Y-121439484D01*
X86041200Y-121439484D02*
X85993581Y-121534722D01*
X85993581Y-121534722D02*
X85945962Y-121582342D01*
X85945962Y-121582342D02*
X85850724Y-121629961D01*
X85850724Y-121629961D02*
X85707867Y-121629961D01*
X86612629Y-121629961D02*
X86517391Y-121582342D01*
X86517391Y-121582342D02*
X86469772Y-121534722D01*
X86469772Y-121534722D02*
X86422153Y-121439484D01*
X86422153Y-121439484D02*
X86422153Y-121153770D01*
X86422153Y-121153770D02*
X86469772Y-121058532D01*
X86469772Y-121058532D02*
X86517391Y-121010913D01*
X86517391Y-121010913D02*
X86612629Y-120963294D01*
X86612629Y-120963294D02*
X86755486Y-120963294D01*
X86755486Y-120963294D02*
X86850724Y-121010913D01*
X86850724Y-121010913D02*
X86898343Y-121058532D01*
X86898343Y-121058532D02*
X86945962Y-121153770D01*
X86945962Y-121153770D02*
X86945962Y-121439484D01*
X86945962Y-121439484D02*
X86898343Y-121534722D01*
X86898343Y-121534722D02*
X86850724Y-121582342D01*
X86850724Y-121582342D02*
X86755486Y-121629961D01*
X86755486Y-121629961D02*
X86612629Y-121629961D01*
X87374534Y-121629961D02*
X87374534Y-120963294D01*
X87374534Y-121153770D02*
X87422153Y-121058532D01*
X87422153Y-121058532D02*
X87469772Y-121010913D01*
X87469772Y-121010913D02*
X87565010Y-120963294D01*
X87565010Y-120963294D02*
X87660248Y-120963294D01*
X89088820Y-121106151D02*
X89231677Y-121153770D01*
X89231677Y-121153770D02*
X89279296Y-121201389D01*
X89279296Y-121201389D02*
X89326915Y-121296627D01*
X89326915Y-121296627D02*
X89326915Y-121439484D01*
X89326915Y-121439484D02*
X89279296Y-121534722D01*
X89279296Y-121534722D02*
X89231677Y-121582342D01*
X89231677Y-121582342D02*
X89136439Y-121629961D01*
X89136439Y-121629961D02*
X88755487Y-121629961D01*
X88755487Y-121629961D02*
X88755487Y-120629961D01*
X88755487Y-120629961D02*
X89088820Y-120629961D01*
X89088820Y-120629961D02*
X89184058Y-120677580D01*
X89184058Y-120677580D02*
X89231677Y-120725199D01*
X89231677Y-120725199D02*
X89279296Y-120820437D01*
X89279296Y-120820437D02*
X89279296Y-120915675D01*
X89279296Y-120915675D02*
X89231677Y-121010913D01*
X89231677Y-121010913D02*
X89184058Y-121058532D01*
X89184058Y-121058532D02*
X89088820Y-121106151D01*
X89088820Y-121106151D02*
X88755487Y-121106151D01*
X90184058Y-120963294D02*
X90184058Y-121629961D01*
X89755487Y-120963294D02*
X89755487Y-121487103D01*
X89755487Y-121487103D02*
X89803106Y-121582342D01*
X89803106Y-121582342D02*
X89898344Y-121629961D01*
X89898344Y-121629961D02*
X90041201Y-121629961D01*
X90041201Y-121629961D02*
X90136439Y-121582342D01*
X90136439Y-121582342D02*
X90184058Y-121534722D01*
X90517392Y-120963294D02*
X90898344Y-120963294D01*
X90660249Y-120629961D02*
X90660249Y-121487103D01*
X90660249Y-121487103D02*
X90707868Y-121582342D01*
X90707868Y-121582342D02*
X90803106Y-121629961D01*
X90803106Y-121629961D02*
X90898344Y-121629961D01*
X91088821Y-120963294D02*
X91469773Y-120963294D01*
X91231678Y-120629961D02*
X91231678Y-121487103D01*
X91231678Y-121487103D02*
X91279297Y-121582342D01*
X91279297Y-121582342D02*
X91374535Y-121629961D01*
X91374535Y-121629961D02*
X91469773Y-121629961D01*
X91945964Y-121629961D02*
X91850726Y-121582342D01*
X91850726Y-121582342D02*
X91803107Y-121534722D01*
X91803107Y-121534722D02*
X91755488Y-121439484D01*
X91755488Y-121439484D02*
X91755488Y-121153770D01*
X91755488Y-121153770D02*
X91803107Y-121058532D01*
X91803107Y-121058532D02*
X91850726Y-121010913D01*
X91850726Y-121010913D02*
X91945964Y-120963294D01*
X91945964Y-120963294D02*
X92088821Y-120963294D01*
X92088821Y-120963294D02*
X92184059Y-121010913D01*
X92184059Y-121010913D02*
X92231678Y-121058532D01*
X92231678Y-121058532D02*
X92279297Y-121153770D01*
X92279297Y-121153770D02*
X92279297Y-121439484D01*
X92279297Y-121439484D02*
X92231678Y-121534722D01*
X92231678Y-121534722D02*
X92184059Y-121582342D01*
X92184059Y-121582342D02*
X92088821Y-121629961D01*
X92088821Y-121629961D02*
X91945964Y-121629961D01*
X92707869Y-120963294D02*
X92707869Y-121629961D01*
X92707869Y-121058532D02*
X92755488Y-121010913D01*
X92755488Y-121010913D02*
X92850726Y-120963294D01*
X92850726Y-120963294D02*
X92993583Y-120963294D01*
X92993583Y-120963294D02*
X93088821Y-121010913D01*
X93088821Y-121010913D02*
X93136440Y-121106151D01*
X93136440Y-121106151D02*
X93136440Y-121629961D01*
X83374534Y-123239961D02*
X83041201Y-122763770D01*
X82803106Y-123239961D02*
X82803106Y-122239961D01*
X82803106Y-122239961D02*
X83184058Y-122239961D01*
X83184058Y-122239961D02*
X83279296Y-122287580D01*
X83279296Y-122287580D02*
X83326915Y-122335199D01*
X83326915Y-122335199D02*
X83374534Y-122430437D01*
X83374534Y-122430437D02*
X83374534Y-122573294D01*
X83374534Y-122573294D02*
X83326915Y-122668532D01*
X83326915Y-122668532D02*
X83279296Y-122716151D01*
X83279296Y-122716151D02*
X83184058Y-122763770D01*
X83184058Y-122763770D02*
X82803106Y-122763770D01*
X84184058Y-123192342D02*
X84088820Y-123239961D01*
X84088820Y-123239961D02*
X83898344Y-123239961D01*
X83898344Y-123239961D02*
X83803106Y-123192342D01*
X83803106Y-123192342D02*
X83755487Y-123097103D01*
X83755487Y-123097103D02*
X83755487Y-122716151D01*
X83755487Y-122716151D02*
X83803106Y-122620913D01*
X83803106Y-122620913D02*
X83898344Y-122573294D01*
X83898344Y-122573294D02*
X84088820Y-122573294D01*
X84088820Y-122573294D02*
X84184058Y-122620913D01*
X84184058Y-122620913D02*
X84231677Y-122716151D01*
X84231677Y-122716151D02*
X84231677Y-122811389D01*
X84231677Y-122811389D02*
X83755487Y-122906627D01*
X84660249Y-122573294D02*
X84660249Y-123573294D01*
X84660249Y-122620913D02*
X84755487Y-122573294D01*
X84755487Y-122573294D02*
X84945963Y-122573294D01*
X84945963Y-122573294D02*
X85041201Y-122620913D01*
X85041201Y-122620913D02*
X85088820Y-122668532D01*
X85088820Y-122668532D02*
X85136439Y-122763770D01*
X85136439Y-122763770D02*
X85136439Y-123049484D01*
X85136439Y-123049484D02*
X85088820Y-123144722D01*
X85088820Y-123144722D02*
X85041201Y-123192342D01*
X85041201Y-123192342D02*
X84945963Y-123239961D01*
X84945963Y-123239961D02*
X84755487Y-123239961D01*
X84755487Y-123239961D02*
X84660249Y-123192342D01*
X85707868Y-123239961D02*
X85612630Y-123192342D01*
X85612630Y-123192342D02*
X85565011Y-123097103D01*
X85565011Y-123097103D02*
X85565011Y-122239961D01*
X86517392Y-123239961D02*
X86517392Y-122716151D01*
X86517392Y-122716151D02*
X86469773Y-122620913D01*
X86469773Y-122620913D02*
X86374535Y-122573294D01*
X86374535Y-122573294D02*
X86184059Y-122573294D01*
X86184059Y-122573294D02*
X86088821Y-122620913D01*
X86517392Y-123192342D02*
X86422154Y-123239961D01*
X86422154Y-123239961D02*
X86184059Y-123239961D01*
X86184059Y-123239961D02*
X86088821Y-123192342D01*
X86088821Y-123192342D02*
X86041202Y-123097103D01*
X86041202Y-123097103D02*
X86041202Y-123001865D01*
X86041202Y-123001865D02*
X86088821Y-122906627D01*
X86088821Y-122906627D02*
X86184059Y-122859008D01*
X86184059Y-122859008D02*
X86422154Y-122859008D01*
X86422154Y-122859008D02*
X86517392Y-122811389D01*
X87422154Y-123192342D02*
X87326916Y-123239961D01*
X87326916Y-123239961D02*
X87136440Y-123239961D01*
X87136440Y-123239961D02*
X87041202Y-123192342D01*
X87041202Y-123192342D02*
X86993583Y-123144722D01*
X86993583Y-123144722D02*
X86945964Y-123049484D01*
X86945964Y-123049484D02*
X86945964Y-122763770D01*
X86945964Y-122763770D02*
X86993583Y-122668532D01*
X86993583Y-122668532D02*
X87041202Y-122620913D01*
X87041202Y-122620913D02*
X87136440Y-122573294D01*
X87136440Y-122573294D02*
X87326916Y-122573294D01*
X87326916Y-122573294D02*
X87422154Y-122620913D01*
X88231678Y-123192342D02*
X88136440Y-123239961D01*
X88136440Y-123239961D02*
X87945964Y-123239961D01*
X87945964Y-123239961D02*
X87850726Y-123192342D01*
X87850726Y-123192342D02*
X87803107Y-123097103D01*
X87803107Y-123097103D02*
X87803107Y-122716151D01*
X87803107Y-122716151D02*
X87850726Y-122620913D01*
X87850726Y-122620913D02*
X87945964Y-122573294D01*
X87945964Y-122573294D02*
X88136440Y-122573294D01*
X88136440Y-122573294D02*
X88231678Y-122620913D01*
X88231678Y-122620913D02*
X88279297Y-122716151D01*
X88279297Y-122716151D02*
X88279297Y-122811389D01*
X88279297Y-122811389D02*
X87803107Y-122906627D01*
X88707869Y-123239961D02*
X88707869Y-122573294D01*
X88707869Y-122668532D02*
X88755488Y-122620913D01*
X88755488Y-122620913D02*
X88850726Y-122573294D01*
X88850726Y-122573294D02*
X88993583Y-122573294D01*
X88993583Y-122573294D02*
X89088821Y-122620913D01*
X89088821Y-122620913D02*
X89136440Y-122716151D01*
X89136440Y-122716151D02*
X89136440Y-123239961D01*
X89136440Y-122716151D02*
X89184059Y-122620913D01*
X89184059Y-122620913D02*
X89279297Y-122573294D01*
X89279297Y-122573294D02*
X89422154Y-122573294D01*
X89422154Y-122573294D02*
X89517393Y-122620913D01*
X89517393Y-122620913D02*
X89565012Y-122716151D01*
X89565012Y-122716151D02*
X89565012Y-123239961D01*
X90422154Y-123192342D02*
X90326916Y-123239961D01*
X90326916Y-123239961D02*
X90136440Y-123239961D01*
X90136440Y-123239961D02*
X90041202Y-123192342D01*
X90041202Y-123192342D02*
X89993583Y-123097103D01*
X89993583Y-123097103D02*
X89993583Y-122716151D01*
X89993583Y-122716151D02*
X90041202Y-122620913D01*
X90041202Y-122620913D02*
X90136440Y-122573294D01*
X90136440Y-122573294D02*
X90326916Y-122573294D01*
X90326916Y-122573294D02*
X90422154Y-122620913D01*
X90422154Y-122620913D02*
X90469773Y-122716151D01*
X90469773Y-122716151D02*
X90469773Y-122811389D01*
X90469773Y-122811389D02*
X89993583Y-122906627D01*
X90898345Y-122573294D02*
X90898345Y-123239961D01*
X90898345Y-122668532D02*
X90945964Y-122620913D01*
X90945964Y-122620913D02*
X91041202Y-122573294D01*
X91041202Y-122573294D02*
X91184059Y-122573294D01*
X91184059Y-122573294D02*
X91279297Y-122620913D01*
X91279297Y-122620913D02*
X91326916Y-122716151D01*
X91326916Y-122716151D02*
X91326916Y-123239961D01*
X91660250Y-122573294D02*
X92041202Y-122573294D01*
X91803107Y-122239961D02*
X91803107Y-123097103D01*
X91803107Y-123097103D02*
X91850726Y-123192342D01*
X91850726Y-123192342D02*
X91945964Y-123239961D01*
X91945964Y-123239961D02*
X92041202Y-123239961D01*
X93136441Y-123239961D02*
X93136441Y-122239961D01*
X93136441Y-122239961D02*
X93517393Y-122239961D01*
X93517393Y-122239961D02*
X93612631Y-122287580D01*
X93612631Y-122287580D02*
X93660250Y-122335199D01*
X93660250Y-122335199D02*
X93707869Y-122430437D01*
X93707869Y-122430437D02*
X93707869Y-122573294D01*
X93707869Y-122573294D02*
X93660250Y-122668532D01*
X93660250Y-122668532D02*
X93612631Y-122716151D01*
X93612631Y-122716151D02*
X93517393Y-122763770D01*
X93517393Y-122763770D02*
X93136441Y-122763770D01*
X94707869Y-123144722D02*
X94660250Y-123192342D01*
X94660250Y-123192342D02*
X94517393Y-123239961D01*
X94517393Y-123239961D02*
X94422155Y-123239961D01*
X94422155Y-123239961D02*
X94279298Y-123192342D01*
X94279298Y-123192342D02*
X94184060Y-123097103D01*
X94184060Y-123097103D02*
X94136441Y-123001865D01*
X94136441Y-123001865D02*
X94088822Y-122811389D01*
X94088822Y-122811389D02*
X94088822Y-122668532D01*
X94088822Y-122668532D02*
X94136441Y-122478056D01*
X94136441Y-122478056D02*
X94184060Y-122382818D01*
X94184060Y-122382818D02*
X94279298Y-122287580D01*
X94279298Y-122287580D02*
X94422155Y-122239961D01*
X94422155Y-122239961D02*
X94517393Y-122239961D01*
X94517393Y-122239961D02*
X94660250Y-122287580D01*
X94660250Y-122287580D02*
X94707869Y-122335199D01*
X95469774Y-122716151D02*
X95612631Y-122763770D01*
X95612631Y-122763770D02*
X95660250Y-122811389D01*
X95660250Y-122811389D02*
X95707869Y-122906627D01*
X95707869Y-122906627D02*
X95707869Y-123049484D01*
X95707869Y-123049484D02*
X95660250Y-123144722D01*
X95660250Y-123144722D02*
X95612631Y-123192342D01*
X95612631Y-123192342D02*
X95517393Y-123239961D01*
X95517393Y-123239961D02*
X95136441Y-123239961D01*
X95136441Y-123239961D02*
X95136441Y-122239961D01*
X95136441Y-122239961D02*
X95469774Y-122239961D01*
X95469774Y-122239961D02*
X95565012Y-122287580D01*
X95565012Y-122287580D02*
X95612631Y-122335199D01*
X95612631Y-122335199D02*
X95660250Y-122430437D01*
X95660250Y-122430437D02*
X95660250Y-122525675D01*
X95660250Y-122525675D02*
X95612631Y-122620913D01*
X95612631Y-122620913D02*
X95565012Y-122668532D01*
X95565012Y-122668532D02*
X95469774Y-122716151D01*
X95469774Y-122716151D02*
X95136441Y-122716151D01*
X55705690Y-56220566D02*
X56467595Y-56220566D01*
X56086642Y-56601519D02*
X56086642Y-55839614D01*
X59991405Y-56220566D02*
X60753310Y-56220566D01*
X46762333Y-104020580D02*
X46714714Y-104068200D01*
X46714714Y-104068200D02*
X46571857Y-104115819D01*
X46571857Y-104115819D02*
X46476619Y-104115819D01*
X46476619Y-104115819D02*
X46333762Y-104068200D01*
X46333762Y-104068200D02*
X46238524Y-103972961D01*
X46238524Y-103972961D02*
X46190905Y-103877723D01*
X46190905Y-103877723D02*
X46143286Y-103687247D01*
X46143286Y-103687247D02*
X46143286Y-103544390D01*
X46143286Y-103544390D02*
X46190905Y-103353914D01*
X46190905Y-103353914D02*
X46238524Y-103258676D01*
X46238524Y-103258676D02*
X46333762Y-103163438D01*
X46333762Y-103163438D02*
X46476619Y-103115819D01*
X46476619Y-103115819D02*
X46571857Y-103115819D01*
X46571857Y-103115819D02*
X46714714Y-103163438D01*
X46714714Y-103163438D02*
X46762333Y-103211057D01*
X47714714Y-104115819D02*
X47143286Y-104115819D01*
X47429000Y-104115819D02*
X47429000Y-103115819D01*
X47429000Y-103115819D02*
X47333762Y-103258676D01*
X47333762Y-103258676D02*
X47238524Y-103353914D01*
X47238524Y-103353914D02*
X47143286Y-103401533D01*
X56273638Y-118033763D02*
X56226019Y-118081383D01*
X56226019Y-118081383D02*
X56083162Y-118129002D01*
X56083162Y-118129002D02*
X55987924Y-118129002D01*
X55987924Y-118129002D02*
X55845067Y-118081383D01*
X55845067Y-118081383D02*
X55749829Y-117986144D01*
X55749829Y-117986144D02*
X55702210Y-117890906D01*
X55702210Y-117890906D02*
X55654591Y-117700430D01*
X55654591Y-117700430D02*
X55654591Y-117557573D01*
X55654591Y-117557573D02*
X55702210Y-117367097D01*
X55702210Y-117367097D02*
X55749829Y-117271859D01*
X55749829Y-117271859D02*
X55845067Y-117176621D01*
X55845067Y-117176621D02*
X55987924Y-117129002D01*
X55987924Y-117129002D02*
X56083162Y-117129002D01*
X56083162Y-117129002D02*
X56226019Y-117176621D01*
X56226019Y-117176621D02*
X56273638Y-117224240D01*
X56654591Y-117224240D02*
X56702210Y-117176621D01*
X56702210Y-117176621D02*
X56797448Y-117129002D01*
X56797448Y-117129002D02*
X57035543Y-117129002D01*
X57035543Y-117129002D02*
X57130781Y-117176621D01*
X57130781Y-117176621D02*
X57178400Y-117224240D01*
X57178400Y-117224240D02*
X57226019Y-117319478D01*
X57226019Y-117319478D02*
X57226019Y-117414716D01*
X57226019Y-117414716D02*
X57178400Y-117557573D01*
X57178400Y-117557573D02*
X56606972Y-118129002D01*
X56606972Y-118129002D02*
X57226019Y-118129002D01*
X46762333Y-92590580D02*
X46714714Y-92638200D01*
X46714714Y-92638200D02*
X46571857Y-92685819D01*
X46571857Y-92685819D02*
X46476619Y-92685819D01*
X46476619Y-92685819D02*
X46333762Y-92638200D01*
X46333762Y-92638200D02*
X46238524Y-92542961D01*
X46238524Y-92542961D02*
X46190905Y-92447723D01*
X46190905Y-92447723D02*
X46143286Y-92257247D01*
X46143286Y-92257247D02*
X46143286Y-92114390D01*
X46143286Y-92114390D02*
X46190905Y-91923914D01*
X46190905Y-91923914D02*
X46238524Y-91828676D01*
X46238524Y-91828676D02*
X46333762Y-91733438D01*
X46333762Y-91733438D02*
X46476619Y-91685819D01*
X46476619Y-91685819D02*
X46571857Y-91685819D01*
X46571857Y-91685819D02*
X46714714Y-91733438D01*
X46714714Y-91733438D02*
X46762333Y-91781057D01*
X47095667Y-91685819D02*
X47714714Y-91685819D01*
X47714714Y-91685819D02*
X47381381Y-92066771D01*
X47381381Y-92066771D02*
X47524238Y-92066771D01*
X47524238Y-92066771D02*
X47619476Y-92114390D01*
X47619476Y-92114390D02*
X47667095Y-92162009D01*
X47667095Y-92162009D02*
X47714714Y-92257247D01*
X47714714Y-92257247D02*
X47714714Y-92495342D01*
X47714714Y-92495342D02*
X47667095Y-92590580D01*
X47667095Y-92590580D02*
X47619476Y-92638200D01*
X47619476Y-92638200D02*
X47524238Y-92685819D01*
X47524238Y-92685819D02*
X47238524Y-92685819D01*
X47238524Y-92685819D02*
X47143286Y-92638200D01*
X47143286Y-92638200D02*
X47095667Y-92590580D01*
X67698580Y-68807666D02*
X67746200Y-68855285D01*
X67746200Y-68855285D02*
X67793819Y-68998142D01*
X67793819Y-68998142D02*
X67793819Y-69093380D01*
X67793819Y-69093380D02*
X67746200Y-69236237D01*
X67746200Y-69236237D02*
X67650961Y-69331475D01*
X67650961Y-69331475D02*
X67555723Y-69379094D01*
X67555723Y-69379094D02*
X67365247Y-69426713D01*
X67365247Y-69426713D02*
X67222390Y-69426713D01*
X67222390Y-69426713D02*
X67031914Y-69379094D01*
X67031914Y-69379094D02*
X66936676Y-69331475D01*
X66936676Y-69331475D02*
X66841438Y-69236237D01*
X66841438Y-69236237D02*
X66793819Y-69093380D01*
X66793819Y-69093380D02*
X66793819Y-68998142D01*
X66793819Y-68998142D02*
X66841438Y-68855285D01*
X66841438Y-68855285D02*
X66889057Y-68807666D01*
X66793819Y-67902904D02*
X66793819Y-68379094D01*
X66793819Y-68379094D02*
X67270009Y-68426713D01*
X67270009Y-68426713D02*
X67222390Y-68379094D01*
X67222390Y-68379094D02*
X67174771Y-68283856D01*
X67174771Y-68283856D02*
X67174771Y-68045761D01*
X67174771Y-68045761D02*
X67222390Y-67950523D01*
X67222390Y-67950523D02*
X67270009Y-67902904D01*
X67270009Y-67902904D02*
X67365247Y-67855285D01*
X67365247Y-67855285D02*
X67603342Y-67855285D01*
X67603342Y-67855285D02*
X67698580Y-67902904D01*
X67698580Y-67902904D02*
X67746200Y-67950523D01*
X67746200Y-67950523D02*
X67793819Y-68045761D01*
X67793819Y-68045761D02*
X67793819Y-68283856D01*
X67793819Y-68283856D02*
X67746200Y-68379094D01*
X67746200Y-68379094D02*
X67698580Y-68426713D01*
X104147580Y-70172857D02*
X104195200Y-70220476D01*
X104195200Y-70220476D02*
X104242819Y-70363333D01*
X104242819Y-70363333D02*
X104242819Y-70458571D01*
X104242819Y-70458571D02*
X104195200Y-70601428D01*
X104195200Y-70601428D02*
X104099961Y-70696666D01*
X104099961Y-70696666D02*
X104004723Y-70744285D01*
X104004723Y-70744285D02*
X103814247Y-70791904D01*
X103814247Y-70791904D02*
X103671390Y-70791904D01*
X103671390Y-70791904D02*
X103480914Y-70744285D01*
X103480914Y-70744285D02*
X103385676Y-70696666D01*
X103385676Y-70696666D02*
X103290438Y-70601428D01*
X103290438Y-70601428D02*
X103242819Y-70458571D01*
X103242819Y-70458571D02*
X103242819Y-70363333D01*
X103242819Y-70363333D02*
X103290438Y-70220476D01*
X103290438Y-70220476D02*
X103338057Y-70172857D01*
X104242819Y-69220476D02*
X104242819Y-69791904D01*
X104242819Y-69506190D02*
X103242819Y-69506190D01*
X103242819Y-69506190D02*
X103385676Y-69601428D01*
X103385676Y-69601428D02*
X103480914Y-69696666D01*
X103480914Y-69696666D02*
X103528533Y-69791904D01*
X103338057Y-68839523D02*
X103290438Y-68791904D01*
X103290438Y-68791904D02*
X103242819Y-68696666D01*
X103242819Y-68696666D02*
X103242819Y-68458571D01*
X103242819Y-68458571D02*
X103290438Y-68363333D01*
X103290438Y-68363333D02*
X103338057Y-68315714D01*
X103338057Y-68315714D02*
X103433295Y-68268095D01*
X103433295Y-68268095D02*
X103528533Y-68268095D01*
X103528533Y-68268095D02*
X103671390Y-68315714D01*
X103671390Y-68315714D02*
X104242819Y-68887142D01*
X104242819Y-68887142D02*
X104242819Y-68268095D01*
X58014405Y-100529819D02*
X58014405Y-99529819D01*
X58014405Y-99529819D02*
X58252500Y-99529819D01*
X58252500Y-99529819D02*
X58395357Y-99577438D01*
X58395357Y-99577438D02*
X58490595Y-99672676D01*
X58490595Y-99672676D02*
X58538214Y-99767914D01*
X58538214Y-99767914D02*
X58585833Y-99958390D01*
X58585833Y-99958390D02*
X58585833Y-100101247D01*
X58585833Y-100101247D02*
X58538214Y-100291723D01*
X58538214Y-100291723D02*
X58490595Y-100386961D01*
X58490595Y-100386961D02*
X58395357Y-100482200D01*
X58395357Y-100482200D02*
X58252500Y-100529819D01*
X58252500Y-100529819D02*
X58014405Y-100529819D01*
X59538214Y-100529819D02*
X58966786Y-100529819D01*
X59252500Y-100529819D02*
X59252500Y-99529819D01*
X59252500Y-99529819D02*
X59157262Y-99672676D01*
X59157262Y-99672676D02*
X59062024Y-99767914D01*
X59062024Y-99767914D02*
X58966786Y-99815533D01*
X63919816Y-84689587D02*
X63919816Y-83689587D01*
X63919816Y-83689587D02*
X64157911Y-83689587D01*
X64157911Y-83689587D02*
X64300768Y-83737206D01*
X64300768Y-83737206D02*
X64396006Y-83832444D01*
X64396006Y-83832444D02*
X64443625Y-83927682D01*
X64443625Y-83927682D02*
X64491244Y-84118158D01*
X64491244Y-84118158D02*
X64491244Y-84261015D01*
X64491244Y-84261015D02*
X64443625Y-84451491D01*
X64443625Y-84451491D02*
X64396006Y-84546729D01*
X64396006Y-84546729D02*
X64300768Y-84641968D01*
X64300768Y-84641968D02*
X64157911Y-84689587D01*
X64157911Y-84689587D02*
X63919816Y-84689587D01*
X65348387Y-84022920D02*
X65348387Y-84689587D01*
X65110292Y-83641968D02*
X64872197Y-84356253D01*
X64872197Y-84356253D02*
X65491244Y-84356253D01*
X108212294Y-104862132D02*
X108212294Y-105195465D01*
X108736104Y-105195465D02*
X107736104Y-105195465D01*
X107736104Y-105195465D02*
X107736104Y-104719275D01*
X108736104Y-103814513D02*
X108736104Y-104385941D01*
X108736104Y-104100227D02*
X107736104Y-104100227D01*
X107736104Y-104100227D02*
X107878961Y-104195465D01*
X107878961Y-104195465D02*
X107974199Y-104290703D01*
X107974199Y-104290703D02*
X108021818Y-104385941D01*
X57846666Y-55624819D02*
X57846666Y-56339104D01*
X57846666Y-56339104D02*
X57799047Y-56481961D01*
X57799047Y-56481961D02*
X57703809Y-56577200D01*
X57703809Y-56577200D02*
X57560952Y-56624819D01*
X57560952Y-56624819D02*
X57465714Y-56624819D01*
X58227619Y-55624819D02*
X58846666Y-55624819D01*
X58846666Y-55624819D02*
X58513333Y-56005771D01*
X58513333Y-56005771D02*
X58656190Y-56005771D01*
X58656190Y-56005771D02*
X58751428Y-56053390D01*
X58751428Y-56053390D02*
X58799047Y-56101009D01*
X58799047Y-56101009D02*
X58846666Y-56196247D01*
X58846666Y-56196247D02*
X58846666Y-56434342D01*
X58846666Y-56434342D02*
X58799047Y-56529580D01*
X58799047Y-56529580D02*
X58751428Y-56577200D01*
X58751428Y-56577200D02*
X58656190Y-56624819D01*
X58656190Y-56624819D02*
X58370476Y-56624819D01*
X58370476Y-56624819D02*
X58275238Y-56577200D01*
X58275238Y-56577200D02*
X58227619Y-56529580D01*
X53094571Y-61414819D02*
X52618381Y-61414819D01*
X52618381Y-61414819D02*
X52618381Y-60414819D01*
X53427905Y-60891009D02*
X53761238Y-60891009D01*
X53904095Y-61414819D02*
X53427905Y-61414819D01*
X53427905Y-61414819D02*
X53427905Y-60414819D01*
X53427905Y-60414819D02*
X53904095Y-60414819D01*
X54332667Y-61414819D02*
X54332667Y-60414819D01*
X54332667Y-60414819D02*
X54570762Y-60414819D01*
X54570762Y-60414819D02*
X54713619Y-60462438D01*
X54713619Y-60462438D02*
X54808857Y-60557676D01*
X54808857Y-60557676D02*
X54856476Y-60652914D01*
X54856476Y-60652914D02*
X54904095Y-60843390D01*
X54904095Y-60843390D02*
X54904095Y-60986247D01*
X54904095Y-60986247D02*
X54856476Y-61176723D01*
X54856476Y-61176723D02*
X54808857Y-61271961D01*
X54808857Y-61271961D02*
X54713619Y-61367200D01*
X54713619Y-61367200D02*
X54570762Y-61414819D01*
X54570762Y-61414819D02*
X54332667Y-61414819D01*
X55094572Y-61510057D02*
X55856476Y-61510057D01*
X56666000Y-61414819D02*
X56332667Y-60938628D01*
X56094572Y-61414819D02*
X56094572Y-60414819D01*
X56094572Y-60414819D02*
X56475524Y-60414819D01*
X56475524Y-60414819D02*
X56570762Y-60462438D01*
X56570762Y-60462438D02*
X56618381Y-60510057D01*
X56618381Y-60510057D02*
X56666000Y-60605295D01*
X56666000Y-60605295D02*
X56666000Y-60748152D01*
X56666000Y-60748152D02*
X56618381Y-60843390D01*
X56618381Y-60843390D02*
X56570762Y-60891009D01*
X56570762Y-60891009D02*
X56475524Y-60938628D01*
X56475524Y-60938628D02*
X56094572Y-60938628D01*
X57094572Y-61414819D02*
X57094572Y-60414819D01*
X57570762Y-61414819D02*
X57570762Y-60414819D01*
X57570762Y-60414819D02*
X58142190Y-61414819D01*
X58142190Y-61414819D02*
X58142190Y-60414819D01*
X59142190Y-60462438D02*
X59046952Y-60414819D01*
X59046952Y-60414819D02*
X58904095Y-60414819D01*
X58904095Y-60414819D02*
X58761238Y-60462438D01*
X58761238Y-60462438D02*
X58666000Y-60557676D01*
X58666000Y-60557676D02*
X58618381Y-60652914D01*
X58618381Y-60652914D02*
X58570762Y-60843390D01*
X58570762Y-60843390D02*
X58570762Y-60986247D01*
X58570762Y-60986247D02*
X58618381Y-61176723D01*
X58618381Y-61176723D02*
X58666000Y-61271961D01*
X58666000Y-61271961D02*
X58761238Y-61367200D01*
X58761238Y-61367200D02*
X58904095Y-61414819D01*
X58904095Y-61414819D02*
X58999333Y-61414819D01*
X58999333Y-61414819D02*
X59142190Y-61367200D01*
X59142190Y-61367200D02*
X59189809Y-61319580D01*
X59189809Y-61319580D02*
X59189809Y-60986247D01*
X59189809Y-60986247D02*
X58999333Y-60986247D01*
X59380286Y-61510057D02*
X60142190Y-61510057D01*
X60380286Y-61414819D02*
X60380286Y-60414819D01*
X60380286Y-60414819D02*
X60761238Y-60414819D01*
X60761238Y-60414819D02*
X60856476Y-60462438D01*
X60856476Y-60462438D02*
X60904095Y-60510057D01*
X60904095Y-60510057D02*
X60951714Y-60605295D01*
X60951714Y-60605295D02*
X60951714Y-60748152D01*
X60951714Y-60748152D02*
X60904095Y-60843390D01*
X60904095Y-60843390D02*
X60856476Y-60891009D01*
X60856476Y-60891009D02*
X60761238Y-60938628D01*
X60761238Y-60938628D02*
X60380286Y-60938628D01*
X61332667Y-61129104D02*
X61808857Y-61129104D01*
X61237429Y-61414819D02*
X61570762Y-60414819D01*
X61570762Y-60414819D02*
X61904095Y-61414819D01*
X62237429Y-61414819D02*
X62237429Y-60414819D01*
X62237429Y-60414819D02*
X62475524Y-60414819D01*
X62475524Y-60414819D02*
X62618381Y-60462438D01*
X62618381Y-60462438D02*
X62713619Y-60557676D01*
X62713619Y-60557676D02*
X62761238Y-60652914D01*
X62761238Y-60652914D02*
X62808857Y-60843390D01*
X62808857Y-60843390D02*
X62808857Y-60986247D01*
X62808857Y-60986247D02*
X62761238Y-61176723D01*
X62761238Y-61176723D02*
X62713619Y-61271961D01*
X62713619Y-61271961D02*
X62618381Y-61367200D01*
X62618381Y-61367200D02*
X62475524Y-61414819D01*
X62475524Y-61414819D02*
X62237429Y-61414819D01*
X63189810Y-61367200D02*
X63332667Y-61414819D01*
X63332667Y-61414819D02*
X63570762Y-61414819D01*
X63570762Y-61414819D02*
X63666000Y-61367200D01*
X63666000Y-61367200D02*
X63713619Y-61319580D01*
X63713619Y-61319580D02*
X63761238Y-61224342D01*
X63761238Y-61224342D02*
X63761238Y-61129104D01*
X63761238Y-61129104D02*
X63713619Y-61033866D01*
X63713619Y-61033866D02*
X63666000Y-60986247D01*
X63666000Y-60986247D02*
X63570762Y-60938628D01*
X63570762Y-60938628D02*
X63380286Y-60891009D01*
X63380286Y-60891009D02*
X63285048Y-60843390D01*
X63285048Y-60843390D02*
X63237429Y-60795771D01*
X63237429Y-60795771D02*
X63189810Y-60700533D01*
X63189810Y-60700533D02*
X63189810Y-60605295D01*
X63189810Y-60605295D02*
X63237429Y-60510057D01*
X63237429Y-60510057D02*
X63285048Y-60462438D01*
X63285048Y-60462438D02*
X63380286Y-60414819D01*
X63380286Y-60414819D02*
X63618381Y-60414819D01*
X63618381Y-60414819D02*
X63761238Y-60462438D01*
X48247057Y-70859238D02*
X48199438Y-70954476D01*
X48199438Y-70954476D02*
X48104200Y-71049714D01*
X48104200Y-71049714D02*
X47961342Y-71192571D01*
X47961342Y-71192571D02*
X47913723Y-71287809D01*
X47913723Y-71287809D02*
X47913723Y-71383047D01*
X48151819Y-71335428D02*
X48104200Y-71430666D01*
X48104200Y-71430666D02*
X48008961Y-71525904D01*
X48008961Y-71525904D02*
X47818485Y-71573523D01*
X47818485Y-71573523D02*
X47485152Y-71573523D01*
X47485152Y-71573523D02*
X47294676Y-71525904D01*
X47294676Y-71525904D02*
X47199438Y-71430666D01*
X47199438Y-71430666D02*
X47151819Y-71335428D01*
X47151819Y-71335428D02*
X47151819Y-71144952D01*
X47151819Y-71144952D02*
X47199438Y-71049714D01*
X47199438Y-71049714D02*
X47294676Y-70954476D01*
X47294676Y-70954476D02*
X47485152Y-70906857D01*
X47485152Y-70906857D02*
X47818485Y-70906857D01*
X47818485Y-70906857D02*
X48008961Y-70954476D01*
X48008961Y-70954476D02*
X48104200Y-71049714D01*
X48104200Y-71049714D02*
X48151819Y-71144952D01*
X48151819Y-71144952D02*
X48151819Y-71335428D01*
X47151819Y-70573523D02*
X47151819Y-69954476D01*
X47151819Y-69954476D02*
X47532771Y-70287809D01*
X47532771Y-70287809D02*
X47532771Y-70144952D01*
X47532771Y-70144952D02*
X47580390Y-70049714D01*
X47580390Y-70049714D02*
X47628009Y-70002095D01*
X47628009Y-70002095D02*
X47723247Y-69954476D01*
X47723247Y-69954476D02*
X47961342Y-69954476D01*
X47961342Y-69954476D02*
X48056580Y-70002095D01*
X48056580Y-70002095D02*
X48104200Y-70049714D01*
X48104200Y-70049714D02*
X48151819Y-70144952D01*
X48151819Y-70144952D02*
X48151819Y-70430666D01*
X48151819Y-70430666D02*
X48104200Y-70525904D01*
X48104200Y-70525904D02*
X48056580Y-70573523D01*
X58657833Y-93927819D02*
X58324500Y-93451628D01*
X58086405Y-93927819D02*
X58086405Y-92927819D01*
X58086405Y-92927819D02*
X58467357Y-92927819D01*
X58467357Y-92927819D02*
X58562595Y-92975438D01*
X58562595Y-92975438D02*
X58610214Y-93023057D01*
X58610214Y-93023057D02*
X58657833Y-93118295D01*
X58657833Y-93118295D02*
X58657833Y-93261152D01*
X58657833Y-93261152D02*
X58610214Y-93356390D01*
X58610214Y-93356390D02*
X58562595Y-93404009D01*
X58562595Y-93404009D02*
X58467357Y-93451628D01*
X58467357Y-93451628D02*
X58086405Y-93451628D01*
X59610214Y-93927819D02*
X59038786Y-93927819D01*
X59324500Y-93927819D02*
X59324500Y-92927819D01*
X59324500Y-92927819D02*
X59229262Y-93070676D01*
X59229262Y-93070676D02*
X59134024Y-93165914D01*
X59134024Y-93165914D02*
X59038786Y-93213533D01*
X105611819Y-64786166D02*
X105135628Y-65119499D01*
X105611819Y-65357594D02*
X104611819Y-65357594D01*
X104611819Y-65357594D02*
X104611819Y-64976642D01*
X104611819Y-64976642D02*
X104659438Y-64881404D01*
X104659438Y-64881404D02*
X104707057Y-64833785D01*
X104707057Y-64833785D02*
X104802295Y-64786166D01*
X104802295Y-64786166D02*
X104945152Y-64786166D01*
X104945152Y-64786166D02*
X105040390Y-64833785D01*
X105040390Y-64833785D02*
X105088009Y-64881404D01*
X105088009Y-64881404D02*
X105135628Y-64976642D01*
X105135628Y-64976642D02*
X105135628Y-65357594D01*
X105040390Y-64214737D02*
X104992771Y-64309975D01*
X104992771Y-64309975D02*
X104945152Y-64357594D01*
X104945152Y-64357594D02*
X104849914Y-64405213D01*
X104849914Y-64405213D02*
X104802295Y-64405213D01*
X104802295Y-64405213D02*
X104707057Y-64357594D01*
X104707057Y-64357594D02*
X104659438Y-64309975D01*
X104659438Y-64309975D02*
X104611819Y-64214737D01*
X104611819Y-64214737D02*
X104611819Y-64024261D01*
X104611819Y-64024261D02*
X104659438Y-63929023D01*
X104659438Y-63929023D02*
X104707057Y-63881404D01*
X104707057Y-63881404D02*
X104802295Y-63833785D01*
X104802295Y-63833785D02*
X104849914Y-63833785D01*
X104849914Y-63833785D02*
X104945152Y-63881404D01*
X104945152Y-63881404D02*
X104992771Y-63929023D01*
X104992771Y-63929023D02*
X105040390Y-64024261D01*
X105040390Y-64024261D02*
X105040390Y-64214737D01*
X105040390Y-64214737D02*
X105088009Y-64309975D01*
X105088009Y-64309975D02*
X105135628Y-64357594D01*
X105135628Y-64357594D02*
X105230866Y-64405213D01*
X105230866Y-64405213D02*
X105421342Y-64405213D01*
X105421342Y-64405213D02*
X105516580Y-64357594D01*
X105516580Y-64357594D02*
X105564200Y-64309975D01*
X105564200Y-64309975D02*
X105611819Y-64214737D01*
X105611819Y-64214737D02*
X105611819Y-64024261D01*
X105611819Y-64024261D02*
X105564200Y-63929023D01*
X105564200Y-63929023D02*
X105516580Y-63881404D01*
X105516580Y-63881404D02*
X105421342Y-63833785D01*
X105421342Y-63833785D02*
X105230866Y-63833785D01*
X105230866Y-63833785D02*
X105135628Y-63881404D01*
X105135628Y-63881404D02*
X105088009Y-63929023D01*
X105088009Y-63929023D02*
X105040390Y-64024261D01*
X100912819Y-64833166D02*
X100436628Y-65166499D01*
X100912819Y-65404594D02*
X99912819Y-65404594D01*
X99912819Y-65404594D02*
X99912819Y-65023642D01*
X99912819Y-65023642D02*
X99960438Y-64928404D01*
X99960438Y-64928404D02*
X100008057Y-64880785D01*
X100008057Y-64880785D02*
X100103295Y-64833166D01*
X100103295Y-64833166D02*
X100246152Y-64833166D01*
X100246152Y-64833166D02*
X100341390Y-64880785D01*
X100341390Y-64880785D02*
X100389009Y-64928404D01*
X100389009Y-64928404D02*
X100436628Y-65023642D01*
X100436628Y-65023642D02*
X100436628Y-65404594D01*
X100912819Y-64356975D02*
X100912819Y-64166499D01*
X100912819Y-64166499D02*
X100865200Y-64071261D01*
X100865200Y-64071261D02*
X100817580Y-64023642D01*
X100817580Y-64023642D02*
X100674723Y-63928404D01*
X100674723Y-63928404D02*
X100484247Y-63880785D01*
X100484247Y-63880785D02*
X100103295Y-63880785D01*
X100103295Y-63880785D02*
X100008057Y-63928404D01*
X100008057Y-63928404D02*
X99960438Y-63976023D01*
X99960438Y-63976023D02*
X99912819Y-64071261D01*
X99912819Y-64071261D02*
X99912819Y-64261737D01*
X99912819Y-64261737D02*
X99960438Y-64356975D01*
X99960438Y-64356975D02*
X100008057Y-64404594D01*
X100008057Y-64404594D02*
X100103295Y-64452213D01*
X100103295Y-64452213D02*
X100341390Y-64452213D01*
X100341390Y-64452213D02*
X100436628Y-64404594D01*
X100436628Y-64404594D02*
X100484247Y-64356975D01*
X100484247Y-64356975D02*
X100531866Y-64261737D01*
X100531866Y-64261737D02*
X100531866Y-64071261D01*
X100531866Y-64071261D02*
X100484247Y-63976023D01*
X100484247Y-63976023D02*
X100436628Y-63928404D01*
X100436628Y-63928404D02*
X100341390Y-63880785D01*
X50157142Y-78813819D02*
X49823809Y-78337628D01*
X49585714Y-78813819D02*
X49585714Y-77813819D01*
X49585714Y-77813819D02*
X49966666Y-77813819D01*
X49966666Y-77813819D02*
X50061904Y-77861438D01*
X50061904Y-77861438D02*
X50109523Y-77909057D01*
X50109523Y-77909057D02*
X50157142Y-78004295D01*
X50157142Y-78004295D02*
X50157142Y-78147152D01*
X50157142Y-78147152D02*
X50109523Y-78242390D01*
X50109523Y-78242390D02*
X50061904Y-78290009D01*
X50061904Y-78290009D02*
X49966666Y-78337628D01*
X49966666Y-78337628D02*
X49585714Y-78337628D01*
X51109523Y-78813819D02*
X50538095Y-78813819D01*
X50823809Y-78813819D02*
X50823809Y-77813819D01*
X50823809Y-77813819D02*
X50728571Y-77956676D01*
X50728571Y-77956676D02*
X50633333Y-78051914D01*
X50633333Y-78051914D02*
X50538095Y-78099533D01*
X51728571Y-77813819D02*
X51823809Y-77813819D01*
X51823809Y-77813819D02*
X51919047Y-77861438D01*
X51919047Y-77861438D02*
X51966666Y-77909057D01*
X51966666Y-77909057D02*
X52014285Y-78004295D01*
X52014285Y-78004295D02*
X52061904Y-78194771D01*
X52061904Y-78194771D02*
X52061904Y-78432866D01*
X52061904Y-78432866D02*
X52014285Y-78623342D01*
X52014285Y-78623342D02*
X51966666Y-78718580D01*
X51966666Y-78718580D02*
X51919047Y-78766200D01*
X51919047Y-78766200D02*
X51823809Y-78813819D01*
X51823809Y-78813819D02*
X51728571Y-78813819D01*
X51728571Y-78813819D02*
X51633333Y-78766200D01*
X51633333Y-78766200D02*
X51585714Y-78718580D01*
X51585714Y-78718580D02*
X51538095Y-78623342D01*
X51538095Y-78623342D02*
X51490476Y-78432866D01*
X51490476Y-78432866D02*
X51490476Y-78194771D01*
X51490476Y-78194771D02*
X51538095Y-78004295D01*
X51538095Y-78004295D02*
X51585714Y-77909057D01*
X51585714Y-77909057D02*
X51633333Y-77861438D01*
X51633333Y-77861438D02*
X51728571Y-77813819D01*
X50514642Y-57224819D02*
X50181309Y-56748628D01*
X49943214Y-57224819D02*
X49943214Y-56224819D01*
X49943214Y-56224819D02*
X50324166Y-56224819D01*
X50324166Y-56224819D02*
X50419404Y-56272438D01*
X50419404Y-56272438D02*
X50467023Y-56320057D01*
X50467023Y-56320057D02*
X50514642Y-56415295D01*
X50514642Y-56415295D02*
X50514642Y-56558152D01*
X50514642Y-56558152D02*
X50467023Y-56653390D01*
X50467023Y-56653390D02*
X50419404Y-56701009D01*
X50419404Y-56701009D02*
X50324166Y-56748628D01*
X50324166Y-56748628D02*
X49943214Y-56748628D01*
X51467023Y-57224819D02*
X50895595Y-57224819D01*
X51181309Y-57224819D02*
X51181309Y-56224819D01*
X51181309Y-56224819D02*
X51086071Y-56367676D01*
X51086071Y-56367676D02*
X50990833Y-56462914D01*
X50990833Y-56462914D02*
X50895595Y-56510533D01*
X52419404Y-57224819D02*
X51847976Y-57224819D01*
X52133690Y-57224819D02*
X52133690Y-56224819D01*
X52133690Y-56224819D02*
X52038452Y-56367676D01*
X52038452Y-56367676D02*
X51943214Y-56462914D01*
X51943214Y-56462914D02*
X51847976Y-56510533D01*
X63976642Y-76655819D02*
X63643309Y-76179628D01*
X63405214Y-76655819D02*
X63405214Y-75655819D01*
X63405214Y-75655819D02*
X63786166Y-75655819D01*
X63786166Y-75655819D02*
X63881404Y-75703438D01*
X63881404Y-75703438D02*
X63929023Y-75751057D01*
X63929023Y-75751057D02*
X63976642Y-75846295D01*
X63976642Y-75846295D02*
X63976642Y-75989152D01*
X63976642Y-75989152D02*
X63929023Y-76084390D01*
X63929023Y-76084390D02*
X63881404Y-76132009D01*
X63881404Y-76132009D02*
X63786166Y-76179628D01*
X63786166Y-76179628D02*
X63405214Y-76179628D01*
X64929023Y-76655819D02*
X64357595Y-76655819D01*
X64643309Y-76655819D02*
X64643309Y-75655819D01*
X64643309Y-75655819D02*
X64548071Y-75798676D01*
X64548071Y-75798676D02*
X64452833Y-75893914D01*
X64452833Y-75893914D02*
X64357595Y-75941533D01*
X65309976Y-75751057D02*
X65357595Y-75703438D01*
X65357595Y-75703438D02*
X65452833Y-75655819D01*
X65452833Y-75655819D02*
X65690928Y-75655819D01*
X65690928Y-75655819D02*
X65786166Y-75703438D01*
X65786166Y-75703438D02*
X65833785Y-75751057D01*
X65833785Y-75751057D02*
X65881404Y-75846295D01*
X65881404Y-75846295D02*
X65881404Y-75941533D01*
X65881404Y-75941533D02*
X65833785Y-76084390D01*
X65833785Y-76084390D02*
X65262357Y-76655819D01*
X65262357Y-76655819D02*
X65881404Y-76655819D01*
X98691867Y-57773100D02*
X98834724Y-57820719D01*
X98834724Y-57820719D02*
X99072819Y-57820719D01*
X99072819Y-57820719D02*
X99168057Y-57773100D01*
X99168057Y-57773100D02*
X99215676Y-57725480D01*
X99215676Y-57725480D02*
X99263295Y-57630242D01*
X99263295Y-57630242D02*
X99263295Y-57535004D01*
X99263295Y-57535004D02*
X99215676Y-57439766D01*
X99215676Y-57439766D02*
X99168057Y-57392147D01*
X99168057Y-57392147D02*
X99072819Y-57344528D01*
X99072819Y-57344528D02*
X98882343Y-57296909D01*
X98882343Y-57296909D02*
X98787105Y-57249290D01*
X98787105Y-57249290D02*
X98739486Y-57201671D01*
X98739486Y-57201671D02*
X98691867Y-57106433D01*
X98691867Y-57106433D02*
X98691867Y-57011195D01*
X98691867Y-57011195D02*
X98739486Y-56915957D01*
X98739486Y-56915957D02*
X98787105Y-56868338D01*
X98787105Y-56868338D02*
X98882343Y-56820719D01*
X98882343Y-56820719D02*
X99120438Y-56820719D01*
X99120438Y-56820719D02*
X99263295Y-56868338D01*
X99596629Y-56820719D02*
X99834724Y-57820719D01*
X99834724Y-57820719D02*
X100025200Y-57106433D01*
X100025200Y-57106433D02*
X100215676Y-57820719D01*
X100215676Y-57820719D02*
X100453772Y-56820719D01*
X100739486Y-56820719D02*
X101358533Y-56820719D01*
X101358533Y-56820719D02*
X101025200Y-57201671D01*
X101025200Y-57201671D02*
X101168057Y-57201671D01*
X101168057Y-57201671D02*
X101263295Y-57249290D01*
X101263295Y-57249290D02*
X101310914Y-57296909D01*
X101310914Y-57296909D02*
X101358533Y-57392147D01*
X101358533Y-57392147D02*
X101358533Y-57630242D01*
X101358533Y-57630242D02*
X101310914Y-57725480D01*
X101310914Y-57725480D02*
X101263295Y-57773100D01*
X101263295Y-57773100D02*
X101168057Y-57820719D01*
X101168057Y-57820719D02*
X100882343Y-57820719D01*
X100882343Y-57820719D02*
X100787105Y-57773100D01*
X100787105Y-57773100D02*
X100739486Y-57725480D01*
X95071205Y-62684819D02*
X95071205Y-61684819D01*
X95071205Y-61684819D02*
X95404538Y-62399104D01*
X95404538Y-62399104D02*
X95737871Y-61684819D01*
X95737871Y-61684819D02*
X95737871Y-62684819D01*
X96166443Y-62399104D02*
X96642633Y-62399104D01*
X96071205Y-62684819D02*
X96404538Y-61684819D01*
X96404538Y-61684819D02*
X96737871Y-62684819D01*
X97071205Y-62684819D02*
X97071205Y-61684819D01*
X97547395Y-62684819D02*
X97547395Y-61684819D01*
X97547395Y-61684819D02*
X98118823Y-62684819D01*
X98118823Y-62684819D02*
X98118823Y-61684819D01*
X98356919Y-62780057D02*
X99118823Y-62780057D01*
X99690252Y-62161009D02*
X99833109Y-62208628D01*
X99833109Y-62208628D02*
X99880728Y-62256247D01*
X99880728Y-62256247D02*
X99928347Y-62351485D01*
X99928347Y-62351485D02*
X99928347Y-62494342D01*
X99928347Y-62494342D02*
X99880728Y-62589580D01*
X99880728Y-62589580D02*
X99833109Y-62637200D01*
X99833109Y-62637200D02*
X99737871Y-62684819D01*
X99737871Y-62684819D02*
X99356919Y-62684819D01*
X99356919Y-62684819D02*
X99356919Y-61684819D01*
X99356919Y-61684819D02*
X99690252Y-61684819D01*
X99690252Y-61684819D02*
X99785490Y-61732438D01*
X99785490Y-61732438D02*
X99833109Y-61780057D01*
X99833109Y-61780057D02*
X99880728Y-61875295D01*
X99880728Y-61875295D02*
X99880728Y-61970533D01*
X99880728Y-61970533D02*
X99833109Y-62065771D01*
X99833109Y-62065771D02*
X99785490Y-62113390D01*
X99785490Y-62113390D02*
X99690252Y-62161009D01*
X99690252Y-62161009D02*
X99356919Y-62161009D01*
X100356919Y-61684819D02*
X100356919Y-62494342D01*
X100356919Y-62494342D02*
X100404538Y-62589580D01*
X100404538Y-62589580D02*
X100452157Y-62637200D01*
X100452157Y-62637200D02*
X100547395Y-62684819D01*
X100547395Y-62684819D02*
X100737871Y-62684819D01*
X100737871Y-62684819D02*
X100833109Y-62637200D01*
X100833109Y-62637200D02*
X100880728Y-62589580D01*
X100880728Y-62589580D02*
X100928347Y-62494342D01*
X100928347Y-62494342D02*
X100928347Y-61684819D01*
X101261681Y-61684819D02*
X101833109Y-61684819D01*
X101547395Y-62684819D02*
X101547395Y-61684819D01*
X102023586Y-61684819D02*
X102595014Y-61684819D01*
X102309300Y-62684819D02*
X102309300Y-61684819D01*
X103118824Y-61684819D02*
X103309300Y-61684819D01*
X103309300Y-61684819D02*
X103404538Y-61732438D01*
X103404538Y-61732438D02*
X103499776Y-61827676D01*
X103499776Y-61827676D02*
X103547395Y-62018152D01*
X103547395Y-62018152D02*
X103547395Y-62351485D01*
X103547395Y-62351485D02*
X103499776Y-62541961D01*
X103499776Y-62541961D02*
X103404538Y-62637200D01*
X103404538Y-62637200D02*
X103309300Y-62684819D01*
X103309300Y-62684819D02*
X103118824Y-62684819D01*
X103118824Y-62684819D02*
X103023586Y-62637200D01*
X103023586Y-62637200D02*
X102928348Y-62541961D01*
X102928348Y-62541961D02*
X102880729Y-62351485D01*
X102880729Y-62351485D02*
X102880729Y-62018152D01*
X102880729Y-62018152D02*
X102928348Y-61827676D01*
X102928348Y-61827676D02*
X103023586Y-61732438D01*
X103023586Y-61732438D02*
X103118824Y-61684819D01*
X103975967Y-62684819D02*
X103975967Y-61684819D01*
X103975967Y-61684819D02*
X104547395Y-62684819D01*
X104547395Y-62684819D02*
X104547395Y-61684819D01*
X48870095Y-91460819D02*
X48870095Y-92270342D01*
X48870095Y-92270342D02*
X48917714Y-92365580D01*
X48917714Y-92365580D02*
X48965333Y-92413200D01*
X48965333Y-92413200D02*
X49060571Y-92460819D01*
X49060571Y-92460819D02*
X49251047Y-92460819D01*
X49251047Y-92460819D02*
X49346285Y-92413200D01*
X49346285Y-92413200D02*
X49393904Y-92365580D01*
X49393904Y-92365580D02*
X49441523Y-92270342D01*
X49441523Y-92270342D02*
X49441523Y-91460819D01*
X50441523Y-92460819D02*
X49870095Y-92460819D01*
X50155809Y-92460819D02*
X50155809Y-91460819D01*
X50155809Y-91460819D02*
X50060571Y-91603676D01*
X50060571Y-91603676D02*
X49965333Y-91698914D01*
X49965333Y-91698914D02*
X49870095Y-91746533D01*
X48870095Y-103031819D02*
X48870095Y-103841342D01*
X48870095Y-103841342D02*
X48917714Y-103936580D01*
X48917714Y-103936580D02*
X48965333Y-103984200D01*
X48965333Y-103984200D02*
X49060571Y-104031819D01*
X49060571Y-104031819D02*
X49251047Y-104031819D01*
X49251047Y-104031819D02*
X49346285Y-103984200D01*
X49346285Y-103984200D02*
X49393904Y-103936580D01*
X49393904Y-103936580D02*
X49441523Y-103841342D01*
X49441523Y-103841342D02*
X49441523Y-103031819D01*
X49870095Y-103127057D02*
X49917714Y-103079438D01*
X49917714Y-103079438D02*
X50012952Y-103031819D01*
X50012952Y-103031819D02*
X50251047Y-103031819D01*
X50251047Y-103031819D02*
X50346285Y-103079438D01*
X50346285Y-103079438D02*
X50393904Y-103127057D01*
X50393904Y-103127057D02*
X50441523Y-103222295D01*
X50441523Y-103222295D02*
X50441523Y-103317533D01*
X50441523Y-103317533D02*
X50393904Y-103460390D01*
X50393904Y-103460390D02*
X49822476Y-104031819D01*
X49822476Y-104031819D02*
X50441523Y-104031819D01*
X41061867Y-55495633D02*
X41061867Y-54495633D01*
X41061867Y-54971823D02*
X41633295Y-54971823D01*
X41633295Y-55495633D02*
X41633295Y-54495633D01*
X42633295Y-55495633D02*
X42061867Y-55495633D01*
X42347581Y-55495633D02*
X42347581Y-54495633D01*
X42347581Y-54495633D02*
X42252343Y-54638490D01*
X42252343Y-54638490D02*
X42157105Y-54733728D01*
X42157105Y-54733728D02*
X42061867Y-54781347D01*
X110109095Y-120160819D02*
X110109095Y-119160819D01*
X110109095Y-119637009D02*
X110680523Y-119637009D01*
X110680523Y-120160819D02*
X110680523Y-119160819D01*
X111109095Y-119256057D02*
X111156714Y-119208438D01*
X111156714Y-119208438D02*
X111251952Y-119160819D01*
X111251952Y-119160819D02*
X111490047Y-119160819D01*
X111490047Y-119160819D02*
X111585285Y-119208438D01*
X111585285Y-119208438D02*
X111632904Y-119256057D01*
X111632904Y-119256057D02*
X111680523Y-119351295D01*
X111680523Y-119351295D02*
X111680523Y-119446533D01*
X111680523Y-119446533D02*
X111632904Y-119589390D01*
X111632904Y-119589390D02*
X111061476Y-120160819D01*
X111061476Y-120160819D02*
X111680523Y-120160819D01*
X113306925Y-55716387D02*
X113306925Y-54716387D01*
X113306925Y-55192577D02*
X113878353Y-55192577D01*
X113878353Y-55716387D02*
X113878353Y-54716387D01*
X114259306Y-54716387D02*
X114878353Y-54716387D01*
X114878353Y-54716387D02*
X114545020Y-55097339D01*
X114545020Y-55097339D02*
X114687877Y-55097339D01*
X114687877Y-55097339D02*
X114783115Y-55144958D01*
X114783115Y-55144958D02*
X114830734Y-55192577D01*
X114830734Y-55192577D02*
X114878353Y-55287815D01*
X114878353Y-55287815D02*
X114878353Y-55525910D01*
X114878353Y-55525910D02*
X114830734Y-55621148D01*
X114830734Y-55621148D02*
X114783115Y-55668768D01*
X114783115Y-55668768D02*
X114687877Y-55716387D01*
X114687877Y-55716387D02*
X114402163Y-55716387D01*
X114402163Y-55716387D02*
X114306925Y-55668768D01*
X114306925Y-55668768D02*
X114259306Y-55621148D01*
X44831095Y-120160819D02*
X44831095Y-119160819D01*
X44831095Y-119637009D02*
X45402523Y-119637009D01*
X45402523Y-120160819D02*
X45402523Y-119160819D01*
X46307285Y-119494152D02*
X46307285Y-120160819D01*
X46069190Y-119113200D02*
X45831095Y-119827485D01*
X45831095Y-119827485D02*
X46450142Y-119827485D01*
X58969819Y-107165094D02*
X57969819Y-107165094D01*
X57969819Y-107165094D02*
X57969819Y-106926999D01*
X57969819Y-106926999D02*
X58017438Y-106784142D01*
X58017438Y-106784142D02*
X58112676Y-106688904D01*
X58112676Y-106688904D02*
X58207914Y-106641285D01*
X58207914Y-106641285D02*
X58398390Y-106593666D01*
X58398390Y-106593666D02*
X58541247Y-106593666D01*
X58541247Y-106593666D02*
X58731723Y-106641285D01*
X58731723Y-106641285D02*
X58826961Y-106688904D01*
X58826961Y-106688904D02*
X58922200Y-106784142D01*
X58922200Y-106784142D02*
X58969819Y-106926999D01*
X58969819Y-106926999D02*
X58969819Y-107165094D01*
X57969819Y-105688904D02*
X57969819Y-106165094D01*
X57969819Y-106165094D02*
X58446009Y-106212713D01*
X58446009Y-106212713D02*
X58398390Y-106165094D01*
X58398390Y-106165094D02*
X58350771Y-106069856D01*
X58350771Y-106069856D02*
X58350771Y-105831761D01*
X58350771Y-105831761D02*
X58398390Y-105736523D01*
X58398390Y-105736523D02*
X58446009Y-105688904D01*
X58446009Y-105688904D02*
X58541247Y-105641285D01*
X58541247Y-105641285D02*
X58779342Y-105641285D01*
X58779342Y-105641285D02*
X58874580Y-105688904D01*
X58874580Y-105688904D02*
X58922200Y-105736523D01*
X58922200Y-105736523D02*
X58969819Y-105831761D01*
X58969819Y-105831761D02*
X58969819Y-106069856D01*
X58969819Y-106069856D02*
X58922200Y-106165094D01*
X58922200Y-106165094D02*
X58874580Y-106212713D01*
X67698580Y-72871666D02*
X67746200Y-72919285D01*
X67746200Y-72919285D02*
X67793819Y-73062142D01*
X67793819Y-73062142D02*
X67793819Y-73157380D01*
X67793819Y-73157380D02*
X67746200Y-73300237D01*
X67746200Y-73300237D02*
X67650961Y-73395475D01*
X67650961Y-73395475D02*
X67555723Y-73443094D01*
X67555723Y-73443094D02*
X67365247Y-73490713D01*
X67365247Y-73490713D02*
X67222390Y-73490713D01*
X67222390Y-73490713D02*
X67031914Y-73443094D01*
X67031914Y-73443094D02*
X66936676Y-73395475D01*
X66936676Y-73395475D02*
X66841438Y-73300237D01*
X66841438Y-73300237D02*
X66793819Y-73157380D01*
X66793819Y-73157380D02*
X66793819Y-73062142D01*
X66793819Y-73062142D02*
X66841438Y-72919285D01*
X66841438Y-72919285D02*
X66889057Y-72871666D01*
X67222390Y-72300237D02*
X67174771Y-72395475D01*
X67174771Y-72395475D02*
X67127152Y-72443094D01*
X67127152Y-72443094D02*
X67031914Y-72490713D01*
X67031914Y-72490713D02*
X66984295Y-72490713D01*
X66984295Y-72490713D02*
X66889057Y-72443094D01*
X66889057Y-72443094D02*
X66841438Y-72395475D01*
X66841438Y-72395475D02*
X66793819Y-72300237D01*
X66793819Y-72300237D02*
X66793819Y-72109761D01*
X66793819Y-72109761D02*
X66841438Y-72014523D01*
X66841438Y-72014523D02*
X66889057Y-71966904D01*
X66889057Y-71966904D02*
X66984295Y-71919285D01*
X66984295Y-71919285D02*
X67031914Y-71919285D01*
X67031914Y-71919285D02*
X67127152Y-71966904D01*
X67127152Y-71966904D02*
X67174771Y-72014523D01*
X67174771Y-72014523D02*
X67222390Y-72109761D01*
X67222390Y-72109761D02*
X67222390Y-72300237D01*
X67222390Y-72300237D02*
X67270009Y-72395475D01*
X67270009Y-72395475D02*
X67317628Y-72443094D01*
X67317628Y-72443094D02*
X67412866Y-72490713D01*
X67412866Y-72490713D02*
X67603342Y-72490713D01*
X67603342Y-72490713D02*
X67698580Y-72443094D01*
X67698580Y-72443094D02*
X67746200Y-72395475D01*
X67746200Y-72395475D02*
X67793819Y-72300237D01*
X67793819Y-72300237D02*
X67793819Y-72109761D01*
X67793819Y-72109761D02*
X67746200Y-72014523D01*
X67746200Y-72014523D02*
X67698580Y-71966904D01*
X67698580Y-71966904D02*
X67603342Y-71919285D01*
X67603342Y-71919285D02*
X67412866Y-71919285D01*
X67412866Y-71919285D02*
X67317628Y-71966904D01*
X67317628Y-71966904D02*
X67270009Y-72014523D01*
X67270009Y-72014523D02*
X67222390Y-72109761D01*
X61034819Y-72834166D02*
X60558628Y-73167499D01*
X61034819Y-73405594D02*
X60034819Y-73405594D01*
X60034819Y-73405594D02*
X60034819Y-73024642D01*
X60034819Y-73024642D02*
X60082438Y-72929404D01*
X60082438Y-72929404D02*
X60130057Y-72881785D01*
X60130057Y-72881785D02*
X60225295Y-72834166D01*
X60225295Y-72834166D02*
X60368152Y-72834166D01*
X60368152Y-72834166D02*
X60463390Y-72881785D01*
X60463390Y-72881785D02*
X60511009Y-72929404D01*
X60511009Y-72929404D02*
X60558628Y-73024642D01*
X60558628Y-73024642D02*
X60558628Y-73405594D01*
X60130057Y-72453213D02*
X60082438Y-72405594D01*
X60082438Y-72405594D02*
X60034819Y-72310356D01*
X60034819Y-72310356D02*
X60034819Y-72072261D01*
X60034819Y-72072261D02*
X60082438Y-71977023D01*
X60082438Y-71977023D02*
X60130057Y-71929404D01*
X60130057Y-71929404D02*
X60225295Y-71881785D01*
X60225295Y-71881785D02*
X60320533Y-71881785D01*
X60320533Y-71881785D02*
X60463390Y-71929404D01*
X60463390Y-71929404D02*
X61034819Y-72500832D01*
X61034819Y-72500832D02*
X61034819Y-71881785D01*
D13*
X78000380Y-92613842D02*
X78181809Y-92674318D01*
X78181809Y-92674318D02*
X78484190Y-92674318D01*
X78484190Y-92674318D02*
X78605142Y-92613842D01*
X78605142Y-92613842D02*
X78665618Y-92553365D01*
X78665618Y-92553365D02*
X78726095Y-92432413D01*
X78726095Y-92432413D02*
X78726095Y-92311461D01*
X78726095Y-92311461D02*
X78665618Y-92190508D01*
X78665618Y-92190508D02*
X78605142Y-92130032D01*
X78605142Y-92130032D02*
X78484190Y-92069556D01*
X78484190Y-92069556D02*
X78242285Y-92009080D01*
X78242285Y-92009080D02*
X78121333Y-91948603D01*
X78121333Y-91948603D02*
X78060856Y-91888127D01*
X78060856Y-91888127D02*
X78000380Y-91767175D01*
X78000380Y-91767175D02*
X78000380Y-91646222D01*
X78000380Y-91646222D02*
X78060856Y-91525270D01*
X78060856Y-91525270D02*
X78121333Y-91464794D01*
X78121333Y-91464794D02*
X78242285Y-91404318D01*
X78242285Y-91404318D02*
X78544666Y-91404318D01*
X78544666Y-91404318D02*
X78726095Y-91464794D01*
X79209904Y-91525270D02*
X79270380Y-91464794D01*
X79270380Y-91464794D02*
X79391333Y-91404318D01*
X79391333Y-91404318D02*
X79693714Y-91404318D01*
X79693714Y-91404318D02*
X79814666Y-91464794D01*
X79814666Y-91464794D02*
X79875142Y-91525270D01*
X79875142Y-91525270D02*
X79935619Y-91646222D01*
X79935619Y-91646222D02*
X79935619Y-91767175D01*
X79935619Y-91767175D02*
X79875142Y-91948603D01*
X79875142Y-91948603D02*
X79149428Y-92674318D01*
X79149428Y-92674318D02*
X79935619Y-92674318D01*
D12*
X77123476Y-98001726D02*
X76700142Y-97396964D01*
X76397761Y-98001726D02*
X76397761Y-96731726D01*
X76397761Y-96731726D02*
X76881571Y-96731726D01*
X76881571Y-96731726D02*
X77002523Y-96792202D01*
X77002523Y-96792202D02*
X77063000Y-96852678D01*
X77063000Y-96852678D02*
X77123476Y-96973630D01*
X77123476Y-96973630D02*
X77123476Y-97155059D01*
X77123476Y-97155059D02*
X77063000Y-97276011D01*
X77063000Y-97276011D02*
X77002523Y-97336488D01*
X77002523Y-97336488D02*
X76881571Y-97396964D01*
X76881571Y-97396964D02*
X76397761Y-97396964D01*
X77667761Y-97336488D02*
X78091095Y-97336488D01*
X78272523Y-98001726D02*
X77667761Y-98001726D01*
X77667761Y-98001726D02*
X77667761Y-96731726D01*
X77667761Y-96731726D02*
X78272523Y-96731726D01*
X78756333Y-97941250D02*
X78937762Y-98001726D01*
X78937762Y-98001726D02*
X79240143Y-98001726D01*
X79240143Y-98001726D02*
X79361095Y-97941250D01*
X79361095Y-97941250D02*
X79421571Y-97880773D01*
X79421571Y-97880773D02*
X79482048Y-97759821D01*
X79482048Y-97759821D02*
X79482048Y-97638869D01*
X79482048Y-97638869D02*
X79421571Y-97517916D01*
X79421571Y-97517916D02*
X79361095Y-97457440D01*
X79361095Y-97457440D02*
X79240143Y-97396964D01*
X79240143Y-97396964D02*
X78998238Y-97336488D01*
X78998238Y-97336488D02*
X78877286Y-97276011D01*
X78877286Y-97276011D02*
X78816809Y-97215535D01*
X78816809Y-97215535D02*
X78756333Y-97094583D01*
X78756333Y-97094583D02*
X78756333Y-96973630D01*
X78756333Y-96973630D02*
X78816809Y-96852678D01*
X78816809Y-96852678D02*
X78877286Y-96792202D01*
X78877286Y-96792202D02*
X78998238Y-96731726D01*
X78998238Y-96731726D02*
X79300619Y-96731726D01*
X79300619Y-96731726D02*
X79482048Y-96792202D01*
X80026333Y-97336488D02*
X80449667Y-97336488D01*
X80631095Y-98001726D02*
X80026333Y-98001726D01*
X80026333Y-98001726D02*
X80026333Y-96731726D01*
X80026333Y-96731726D02*
X80631095Y-96731726D01*
X80993953Y-96731726D02*
X81719667Y-96731726D01*
X81356810Y-98001726D02*
X81356810Y-96731726D01*
D13*
X101122237Y-78044318D02*
X101122237Y-76774318D01*
X102452714Y-77923365D02*
X102392238Y-77983842D01*
X102392238Y-77983842D02*
X102210809Y-78044318D01*
X102210809Y-78044318D02*
X102089857Y-78044318D01*
X102089857Y-78044318D02*
X101908428Y-77983842D01*
X101908428Y-77983842D02*
X101787476Y-77862889D01*
X101787476Y-77862889D02*
X101726999Y-77741937D01*
X101726999Y-77741937D02*
X101666523Y-77500032D01*
X101666523Y-77500032D02*
X101666523Y-77318603D01*
X101666523Y-77318603D02*
X101726999Y-77076699D01*
X101726999Y-77076699D02*
X101787476Y-76955746D01*
X101787476Y-76955746D02*
X101908428Y-76834794D01*
X101908428Y-76834794D02*
X102089857Y-76774318D01*
X102089857Y-76774318D02*
X102210809Y-76774318D01*
X102210809Y-76774318D02*
X102392238Y-76834794D01*
X102392238Y-76834794D02*
X102452714Y-76895270D01*
X102936523Y-76895270D02*
X102996999Y-76834794D01*
X102996999Y-76834794D02*
X103117952Y-76774318D01*
X103117952Y-76774318D02*
X103420333Y-76774318D01*
X103420333Y-76774318D02*
X103541285Y-76834794D01*
X103541285Y-76834794D02*
X103601761Y-76895270D01*
X103601761Y-76895270D02*
X103662238Y-77016222D01*
X103662238Y-77016222D02*
X103662238Y-77137175D01*
X103662238Y-77137175D02*
X103601761Y-77318603D01*
X103601761Y-77318603D02*
X102876047Y-78044318D01*
X102876047Y-78044318D02*
X103662238Y-78044318D01*
X76429809Y-67267461D02*
X77034571Y-67267461D01*
X76308857Y-67630318D02*
X76732190Y-66360318D01*
X76732190Y-66360318D02*
X77155524Y-67630318D01*
X77578856Y-67630318D02*
X77578856Y-66360318D01*
X77578856Y-66360318D02*
X78304571Y-67630318D01*
X78304571Y-67630318D02*
X78304571Y-66360318D01*
X78727904Y-66360318D02*
X79453618Y-66360318D01*
X79090761Y-67630318D02*
X79090761Y-66360318D01*
X80542190Y-67630318D02*
X79816475Y-67630318D01*
X80179332Y-67630318D02*
X80179332Y-66360318D01*
X80179332Y-66360318D02*
X80058380Y-66541746D01*
X80058380Y-66541746D02*
X79937428Y-66662699D01*
X79937428Y-66662699D02*
X79816475Y-66723175D01*
D12*
X108098333Y-75699580D02*
X108050714Y-75747200D01*
X108050714Y-75747200D02*
X107907857Y-75794819D01*
X107907857Y-75794819D02*
X107812619Y-75794819D01*
X107812619Y-75794819D02*
X107669762Y-75747200D01*
X107669762Y-75747200D02*
X107574524Y-75651961D01*
X107574524Y-75651961D02*
X107526905Y-75556723D01*
X107526905Y-75556723D02*
X107479286Y-75366247D01*
X107479286Y-75366247D02*
X107479286Y-75223390D01*
X107479286Y-75223390D02*
X107526905Y-75032914D01*
X107526905Y-75032914D02*
X107574524Y-74937676D01*
X107574524Y-74937676D02*
X107669762Y-74842438D01*
X107669762Y-74842438D02*
X107812619Y-74794819D01*
X107812619Y-74794819D02*
X107907857Y-74794819D01*
X107907857Y-74794819D02*
X108050714Y-74842438D01*
X108050714Y-74842438D02*
X108098333Y-74890057D01*
X108955476Y-74794819D02*
X108765000Y-74794819D01*
X108765000Y-74794819D02*
X108669762Y-74842438D01*
X108669762Y-74842438D02*
X108622143Y-74890057D01*
X108622143Y-74890057D02*
X108526905Y-75032914D01*
X108526905Y-75032914D02*
X108479286Y-75223390D01*
X108479286Y-75223390D02*
X108479286Y-75604342D01*
X108479286Y-75604342D02*
X108526905Y-75699580D01*
X108526905Y-75699580D02*
X108574524Y-75747200D01*
X108574524Y-75747200D02*
X108669762Y-75794819D01*
X108669762Y-75794819D02*
X108860238Y-75794819D01*
X108860238Y-75794819D02*
X108955476Y-75747200D01*
X108955476Y-75747200D02*
X109003095Y-75699580D01*
X109003095Y-75699580D02*
X109050714Y-75604342D01*
X109050714Y-75604342D02*
X109050714Y-75366247D01*
X109050714Y-75366247D02*
X109003095Y-75271009D01*
X109003095Y-75271009D02*
X108955476Y-75223390D01*
X108955476Y-75223390D02*
X108860238Y-75175771D01*
X108860238Y-75175771D02*
X108669762Y-75175771D01*
X108669762Y-75175771D02*
X108574524Y-75223390D01*
X108574524Y-75223390D02*
X108526905Y-75271009D01*
X108526905Y-75271009D02*
X108479286Y-75366247D01*
X61847580Y-68819666D02*
X61895200Y-68867285D01*
X61895200Y-68867285D02*
X61942819Y-69010142D01*
X61942819Y-69010142D02*
X61942819Y-69105380D01*
X61942819Y-69105380D02*
X61895200Y-69248237D01*
X61895200Y-69248237D02*
X61799961Y-69343475D01*
X61799961Y-69343475D02*
X61704723Y-69391094D01*
X61704723Y-69391094D02*
X61514247Y-69438713D01*
X61514247Y-69438713D02*
X61371390Y-69438713D01*
X61371390Y-69438713D02*
X61180914Y-69391094D01*
X61180914Y-69391094D02*
X61085676Y-69343475D01*
X61085676Y-69343475D02*
X60990438Y-69248237D01*
X60990438Y-69248237D02*
X60942819Y-69105380D01*
X60942819Y-69105380D02*
X60942819Y-69010142D01*
X60942819Y-69010142D02*
X60990438Y-68867285D01*
X60990438Y-68867285D02*
X61038057Y-68819666D01*
X61276152Y-67962523D02*
X61942819Y-67962523D01*
X60895200Y-68200618D02*
X61609485Y-68438713D01*
X61609485Y-68438713D02*
X61609485Y-67819666D01*
X107907580Y-89445857D02*
X107955200Y-89493476D01*
X107955200Y-89493476D02*
X108002819Y-89636333D01*
X108002819Y-89636333D02*
X108002819Y-89731571D01*
X108002819Y-89731571D02*
X107955200Y-89874428D01*
X107955200Y-89874428D02*
X107859961Y-89969666D01*
X107859961Y-89969666D02*
X107764723Y-90017285D01*
X107764723Y-90017285D02*
X107574247Y-90064904D01*
X107574247Y-90064904D02*
X107431390Y-90064904D01*
X107431390Y-90064904D02*
X107240914Y-90017285D01*
X107240914Y-90017285D02*
X107145676Y-89969666D01*
X107145676Y-89969666D02*
X107050438Y-89874428D01*
X107050438Y-89874428D02*
X107002819Y-89731571D01*
X107002819Y-89731571D02*
X107002819Y-89636333D01*
X107002819Y-89636333D02*
X107050438Y-89493476D01*
X107050438Y-89493476D02*
X107098057Y-89445857D01*
X108002819Y-88493476D02*
X108002819Y-89064904D01*
X108002819Y-88779190D02*
X107002819Y-88779190D01*
X107002819Y-88779190D02*
X107145676Y-88874428D01*
X107145676Y-88874428D02*
X107240914Y-88969666D01*
X107240914Y-88969666D02*
X107288533Y-89064904D01*
X107002819Y-87874428D02*
X107002819Y-87779190D01*
X107002819Y-87779190D02*
X107050438Y-87683952D01*
X107050438Y-87683952D02*
X107098057Y-87636333D01*
X107098057Y-87636333D02*
X107193295Y-87588714D01*
X107193295Y-87588714D02*
X107383771Y-87541095D01*
X107383771Y-87541095D02*
X107621866Y-87541095D01*
X107621866Y-87541095D02*
X107812342Y-87588714D01*
X107812342Y-87588714D02*
X107907580Y-87636333D01*
X107907580Y-87636333D02*
X107955200Y-87683952D01*
X107955200Y-87683952D02*
X108002819Y-87779190D01*
X108002819Y-87779190D02*
X108002819Y-87874428D01*
X108002819Y-87874428D02*
X107955200Y-87969666D01*
X107955200Y-87969666D02*
X107907580Y-88017285D01*
X107907580Y-88017285D02*
X107812342Y-88064904D01*
X107812342Y-88064904D02*
X107621866Y-88112523D01*
X107621866Y-88112523D02*
X107383771Y-88112523D01*
X107383771Y-88112523D02*
X107193295Y-88064904D01*
X107193295Y-88064904D02*
X107098057Y-88017285D01*
X107098057Y-88017285D02*
X107050438Y-87969666D01*
X107050438Y-87969666D02*
X107002819Y-87874428D01*
D13*
X98497047Y-85748270D02*
X98376095Y-85687794D01*
X98376095Y-85687794D02*
X98255142Y-85566842D01*
X98255142Y-85566842D02*
X98073714Y-85385413D01*
X98073714Y-85385413D02*
X97952761Y-85324937D01*
X97952761Y-85324937D02*
X97831809Y-85324937D01*
X97892285Y-85627318D02*
X97771333Y-85566842D01*
X97771333Y-85566842D02*
X97650380Y-85445889D01*
X97650380Y-85445889D02*
X97589904Y-85203984D01*
X97589904Y-85203984D02*
X97589904Y-84780651D01*
X97589904Y-84780651D02*
X97650380Y-84538746D01*
X97650380Y-84538746D02*
X97771333Y-84417794D01*
X97771333Y-84417794D02*
X97892285Y-84357318D01*
X97892285Y-84357318D02*
X98134190Y-84357318D01*
X98134190Y-84357318D02*
X98255142Y-84417794D01*
X98255142Y-84417794D02*
X98376095Y-84538746D01*
X98376095Y-84538746D02*
X98436571Y-84780651D01*
X98436571Y-84780651D02*
X98436571Y-85203984D01*
X98436571Y-85203984D02*
X98376095Y-85445889D01*
X98376095Y-85445889D02*
X98255142Y-85566842D01*
X98255142Y-85566842D02*
X98134190Y-85627318D01*
X98134190Y-85627318D02*
X97892285Y-85627318D01*
X99646095Y-85627318D02*
X98920380Y-85627318D01*
X99283237Y-85627318D02*
X99283237Y-84357318D01*
X99283237Y-84357318D02*
X99162285Y-84538746D01*
X99162285Y-84538746D02*
X99041333Y-84659699D01*
X99041333Y-84659699D02*
X98920380Y-84720175D01*
D12*
X110860135Y-104861885D02*
X110383944Y-105195218D01*
X110860135Y-105433313D02*
X109860135Y-105433313D01*
X109860135Y-105433313D02*
X109860135Y-105052361D01*
X109860135Y-105052361D02*
X109907754Y-104957123D01*
X109907754Y-104957123D02*
X109955373Y-104909504D01*
X109955373Y-104909504D02*
X110050611Y-104861885D01*
X110050611Y-104861885D02*
X110193468Y-104861885D01*
X110193468Y-104861885D02*
X110288706Y-104909504D01*
X110288706Y-104909504D02*
X110336325Y-104957123D01*
X110336325Y-104957123D02*
X110383944Y-105052361D01*
X110383944Y-105052361D02*
X110383944Y-105433313D01*
X109860135Y-104528551D02*
X109860135Y-103909504D01*
X109860135Y-103909504D02*
X110241087Y-104242837D01*
X110241087Y-104242837D02*
X110241087Y-104099980D01*
X110241087Y-104099980D02*
X110288706Y-104004742D01*
X110288706Y-104004742D02*
X110336325Y-103957123D01*
X110336325Y-103957123D02*
X110431563Y-103909504D01*
X110431563Y-103909504D02*
X110669658Y-103909504D01*
X110669658Y-103909504D02*
X110764896Y-103957123D01*
X110764896Y-103957123D02*
X110812516Y-104004742D01*
X110812516Y-104004742D02*
X110860135Y-104099980D01*
X110860135Y-104099980D02*
X110860135Y-104385694D01*
X110860135Y-104385694D02*
X110812516Y-104480932D01*
X110812516Y-104480932D02*
X110764896Y-104528551D01*
X114056745Y-84578021D02*
X113580554Y-84911354D01*
X114056745Y-85149449D02*
X113056745Y-85149449D01*
X113056745Y-85149449D02*
X113056745Y-84768497D01*
X113056745Y-84768497D02*
X113104364Y-84673259D01*
X113104364Y-84673259D02*
X113151983Y-84625640D01*
X113151983Y-84625640D02*
X113247221Y-84578021D01*
X113247221Y-84578021D02*
X113390078Y-84578021D01*
X113390078Y-84578021D02*
X113485316Y-84625640D01*
X113485316Y-84625640D02*
X113532935Y-84673259D01*
X113532935Y-84673259D02*
X113580554Y-84768497D01*
X113580554Y-84768497D02*
X113580554Y-85149449D01*
X113390078Y-83720878D02*
X114056745Y-83720878D01*
X113009126Y-83958973D02*
X113723411Y-84197068D01*
X113723411Y-84197068D02*
X113723411Y-83578021D01*
X106552819Y-96371094D02*
X107362342Y-96371094D01*
X107362342Y-96371094D02*
X107457580Y-96323475D01*
X107457580Y-96323475D02*
X107505200Y-96275856D01*
X107505200Y-96275856D02*
X107552819Y-96180618D01*
X107552819Y-96180618D02*
X107552819Y-95990142D01*
X107552819Y-95990142D02*
X107505200Y-95894904D01*
X107505200Y-95894904D02*
X107457580Y-95847285D01*
X107457580Y-95847285D02*
X107362342Y-95799666D01*
X107362342Y-95799666D02*
X106552819Y-95799666D01*
X107505200Y-95371094D02*
X107552819Y-95228237D01*
X107552819Y-95228237D02*
X107552819Y-94990142D01*
X107552819Y-94990142D02*
X107505200Y-94894904D01*
X107505200Y-94894904D02*
X107457580Y-94847285D01*
X107457580Y-94847285D02*
X107362342Y-94799666D01*
X107362342Y-94799666D02*
X107267104Y-94799666D01*
X107267104Y-94799666D02*
X107171866Y-94847285D01*
X107171866Y-94847285D02*
X107124247Y-94894904D01*
X107124247Y-94894904D02*
X107076628Y-94990142D01*
X107076628Y-94990142D02*
X107029009Y-95180618D01*
X107029009Y-95180618D02*
X106981390Y-95275856D01*
X106981390Y-95275856D02*
X106933771Y-95323475D01*
X106933771Y-95323475D02*
X106838533Y-95371094D01*
X106838533Y-95371094D02*
X106743295Y-95371094D01*
X106743295Y-95371094D02*
X106648057Y-95323475D01*
X106648057Y-95323475D02*
X106600438Y-95275856D01*
X106600438Y-95275856D02*
X106552819Y-95180618D01*
X106552819Y-95180618D02*
X106552819Y-94942523D01*
X106552819Y-94942523D02*
X106600438Y-94799666D01*
X107029009Y-94037761D02*
X107076628Y-93894904D01*
X107076628Y-93894904D02*
X107124247Y-93847285D01*
X107124247Y-93847285D02*
X107219485Y-93799666D01*
X107219485Y-93799666D02*
X107362342Y-93799666D01*
X107362342Y-93799666D02*
X107457580Y-93847285D01*
X107457580Y-93847285D02*
X107505200Y-93894904D01*
X107505200Y-93894904D02*
X107552819Y-93990142D01*
X107552819Y-93990142D02*
X107552819Y-94371094D01*
X107552819Y-94371094D02*
X106552819Y-94371094D01*
X106552819Y-94371094D02*
X106552819Y-94037761D01*
X106552819Y-94037761D02*
X106600438Y-93942523D01*
X106600438Y-93942523D02*
X106648057Y-93894904D01*
X106648057Y-93894904D02*
X106743295Y-93847285D01*
X106743295Y-93847285D02*
X106838533Y-93847285D01*
X106838533Y-93847285D02*
X106933771Y-93894904D01*
X106933771Y-93894904D02*
X106981390Y-93942523D01*
X106981390Y-93942523D02*
X107029009Y-94037761D01*
X107029009Y-94037761D02*
X107029009Y-94371094D01*
X107552819Y-92847285D02*
X107552819Y-93418713D01*
X107552819Y-93132999D02*
X106552819Y-93132999D01*
X106552819Y-93132999D02*
X106695676Y-93228237D01*
X106695676Y-93228237D02*
X106790914Y-93323475D01*
X106790914Y-93323475D02*
X106838533Y-93418713D01*
X105725142Y-84362580D02*
X105677523Y-84410200D01*
X105677523Y-84410200D02*
X105534666Y-84457819D01*
X105534666Y-84457819D02*
X105439428Y-84457819D01*
X105439428Y-84457819D02*
X105296571Y-84410200D01*
X105296571Y-84410200D02*
X105201333Y-84314961D01*
X105201333Y-84314961D02*
X105153714Y-84219723D01*
X105153714Y-84219723D02*
X105106095Y-84029247D01*
X105106095Y-84029247D02*
X105106095Y-83886390D01*
X105106095Y-83886390D02*
X105153714Y-83695914D01*
X105153714Y-83695914D02*
X105201333Y-83600676D01*
X105201333Y-83600676D02*
X105296571Y-83505438D01*
X105296571Y-83505438D02*
X105439428Y-83457819D01*
X105439428Y-83457819D02*
X105534666Y-83457819D01*
X105534666Y-83457819D02*
X105677523Y-83505438D01*
X105677523Y-83505438D02*
X105725142Y-83553057D01*
X106677523Y-84457819D02*
X106106095Y-84457819D01*
X106391809Y-84457819D02*
X106391809Y-83457819D01*
X106391809Y-83457819D02*
X106296571Y-83600676D01*
X106296571Y-83600676D02*
X106201333Y-83695914D01*
X106201333Y-83695914D02*
X106106095Y-83743533D01*
X107629904Y-84457819D02*
X107058476Y-84457819D01*
X107344190Y-84457819D02*
X107344190Y-83457819D01*
X107344190Y-83457819D02*
X107248952Y-83600676D01*
X107248952Y-83600676D02*
X107153714Y-83695914D01*
X107153714Y-83695914D02*
X107058476Y-83743533D01*
X99556095Y-87757819D02*
X99556095Y-88567342D01*
X99556095Y-88567342D02*
X99603714Y-88662580D01*
X99603714Y-88662580D02*
X99651333Y-88710200D01*
X99651333Y-88710200D02*
X99746571Y-88757819D01*
X99746571Y-88757819D02*
X99937047Y-88757819D01*
X99937047Y-88757819D02*
X100032285Y-88710200D01*
X100032285Y-88710200D02*
X100079904Y-88662580D01*
X100079904Y-88662580D02*
X100127523Y-88567342D01*
X100127523Y-88567342D02*
X100127523Y-87757819D01*
X100508476Y-87757819D02*
X101127523Y-87757819D01*
X101127523Y-87757819D02*
X100794190Y-88138771D01*
X100794190Y-88138771D02*
X100937047Y-88138771D01*
X100937047Y-88138771D02*
X101032285Y-88186390D01*
X101032285Y-88186390D02*
X101079904Y-88234009D01*
X101079904Y-88234009D02*
X101127523Y-88329247D01*
X101127523Y-88329247D02*
X101127523Y-88567342D01*
X101127523Y-88567342D02*
X101079904Y-88662580D01*
X101079904Y-88662580D02*
X101032285Y-88710200D01*
X101032285Y-88710200D02*
X100937047Y-88757819D01*
X100937047Y-88757819D02*
X100651333Y-88757819D01*
X100651333Y-88757819D02*
X100556095Y-88710200D01*
X100556095Y-88710200D02*
X100508476Y-88662580D01*
X90096352Y-102342579D02*
X90001114Y-102294960D01*
X90001114Y-102294960D02*
X89905876Y-102199722D01*
X89905876Y-102199722D02*
X89763019Y-102056864D01*
X89763019Y-102056864D02*
X89667781Y-102009245D01*
X89667781Y-102009245D02*
X89572543Y-102009245D01*
X89620162Y-102247341D02*
X89524924Y-102199722D01*
X89524924Y-102199722D02*
X89429686Y-102104483D01*
X89429686Y-102104483D02*
X89382067Y-101914007D01*
X89382067Y-101914007D02*
X89382067Y-101580674D01*
X89382067Y-101580674D02*
X89429686Y-101390198D01*
X89429686Y-101390198D02*
X89524924Y-101294960D01*
X89524924Y-101294960D02*
X89620162Y-101247341D01*
X89620162Y-101247341D02*
X89810638Y-101247341D01*
X89810638Y-101247341D02*
X89905876Y-101294960D01*
X89905876Y-101294960D02*
X90001114Y-101390198D01*
X90001114Y-101390198D02*
X90048733Y-101580674D01*
X90048733Y-101580674D02*
X90048733Y-101914007D01*
X90048733Y-101914007D02*
X90001114Y-102104483D01*
X90001114Y-102104483D02*
X89905876Y-102199722D01*
X89905876Y-102199722D02*
X89810638Y-102247341D01*
X89810638Y-102247341D02*
X89620162Y-102247341D01*
X90429686Y-101342579D02*
X90477305Y-101294960D01*
X90477305Y-101294960D02*
X90572543Y-101247341D01*
X90572543Y-101247341D02*
X90810638Y-101247341D01*
X90810638Y-101247341D02*
X90905876Y-101294960D01*
X90905876Y-101294960D02*
X90953495Y-101342579D01*
X90953495Y-101342579D02*
X91001114Y-101437817D01*
X91001114Y-101437817D02*
X91001114Y-101533055D01*
X91001114Y-101533055D02*
X90953495Y-101675912D01*
X90953495Y-101675912D02*
X90382067Y-102247341D01*
X90382067Y-102247341D02*
X91001114Y-102247341D01*
X66725231Y-114089200D02*
X66725231Y-114898723D01*
X66725231Y-114898723D02*
X66772850Y-114993961D01*
X66772850Y-114993961D02*
X66820469Y-115041581D01*
X66820469Y-115041581D02*
X66915707Y-115089200D01*
X66915707Y-115089200D02*
X67106183Y-115089200D01*
X67106183Y-115089200D02*
X67201421Y-115041581D01*
X67201421Y-115041581D02*
X67249040Y-114993961D01*
X67249040Y-114993961D02*
X67296659Y-114898723D01*
X67296659Y-114898723D02*
X67296659Y-114089200D01*
X68249040Y-114089200D02*
X67772850Y-114089200D01*
X67772850Y-114089200D02*
X67725231Y-114565390D01*
X67725231Y-114565390D02*
X67772850Y-114517771D01*
X67772850Y-114517771D02*
X67868088Y-114470152D01*
X67868088Y-114470152D02*
X68106183Y-114470152D01*
X68106183Y-114470152D02*
X68201421Y-114517771D01*
X68201421Y-114517771D02*
X68249040Y-114565390D01*
X68249040Y-114565390D02*
X68296659Y-114660628D01*
X68296659Y-114660628D02*
X68296659Y-114898723D01*
X68296659Y-114898723D02*
X68249040Y-114993961D01*
X68249040Y-114993961D02*
X68201421Y-115041581D01*
X68201421Y-115041581D02*
X68106183Y-115089200D01*
X68106183Y-115089200D02*
X67868088Y-115089200D01*
X67868088Y-115089200D02*
X67772850Y-115041581D01*
X67772850Y-115041581D02*
X67725231Y-114993961D01*
X61132462Y-113286694D02*
X61180082Y-113334313D01*
X61180082Y-113334313D02*
X61227701Y-113477170D01*
X61227701Y-113477170D02*
X61227701Y-113572408D01*
X61227701Y-113572408D02*
X61180082Y-113715265D01*
X61180082Y-113715265D02*
X61084843Y-113810503D01*
X61084843Y-113810503D02*
X60989605Y-113858122D01*
X60989605Y-113858122D02*
X60799129Y-113905741D01*
X60799129Y-113905741D02*
X60656272Y-113905741D01*
X60656272Y-113905741D02*
X60465796Y-113858122D01*
X60465796Y-113858122D02*
X60370558Y-113810503D01*
X60370558Y-113810503D02*
X60275320Y-113715265D01*
X60275320Y-113715265D02*
X60227701Y-113572408D01*
X60227701Y-113572408D02*
X60227701Y-113477170D01*
X60227701Y-113477170D02*
X60275320Y-113334313D01*
X60275320Y-113334313D02*
X60322939Y-113286694D01*
X61227701Y-112334313D02*
X61227701Y-112905741D01*
X61227701Y-112620027D02*
X60227701Y-112620027D01*
X60227701Y-112620027D02*
X60370558Y-112715265D01*
X60370558Y-112715265D02*
X60465796Y-112810503D01*
X60465796Y-112810503D02*
X60513415Y-112905741D01*
X60227701Y-112000979D02*
X60227701Y-111381932D01*
X60227701Y-111381932D02*
X60608653Y-111715265D01*
X60608653Y-111715265D02*
X60608653Y-111572408D01*
X60608653Y-111572408D02*
X60656272Y-111477170D01*
X60656272Y-111477170D02*
X60703891Y-111429551D01*
X60703891Y-111429551D02*
X60799129Y-111381932D01*
X60799129Y-111381932D02*
X61037224Y-111381932D01*
X61037224Y-111381932D02*
X61132462Y-111429551D01*
X61132462Y-111429551D02*
X61180082Y-111477170D01*
X61180082Y-111477170D02*
X61227701Y-111572408D01*
X61227701Y-111572408D02*
X61227701Y-111858122D01*
X61227701Y-111858122D02*
X61180082Y-111953360D01*
X61180082Y-111953360D02*
X61132462Y-112000979D01*
X55659176Y-120368149D02*
X55659176Y-119368149D01*
X55659176Y-119368149D02*
X55897271Y-119368149D01*
X55897271Y-119368149D02*
X56040128Y-119415768D01*
X56040128Y-119415768D02*
X56135366Y-119511006D01*
X56135366Y-119511006D02*
X56182985Y-119606244D01*
X56182985Y-119606244D02*
X56230604Y-119796720D01*
X56230604Y-119796720D02*
X56230604Y-119939577D01*
X56230604Y-119939577D02*
X56182985Y-120130053D01*
X56182985Y-120130053D02*
X56135366Y-120225291D01*
X56135366Y-120225291D02*
X56040128Y-120320530D01*
X56040128Y-120320530D02*
X55897271Y-120368149D01*
X55897271Y-120368149D02*
X55659176Y-120368149D01*
X57087747Y-119368149D02*
X56897271Y-119368149D01*
X56897271Y-119368149D02*
X56802033Y-119415768D01*
X56802033Y-119415768D02*
X56754414Y-119463387D01*
X56754414Y-119463387D02*
X56659176Y-119606244D01*
X56659176Y-119606244D02*
X56611557Y-119796720D01*
X56611557Y-119796720D02*
X56611557Y-120177672D01*
X56611557Y-120177672D02*
X56659176Y-120272910D01*
X56659176Y-120272910D02*
X56706795Y-120320530D01*
X56706795Y-120320530D02*
X56802033Y-120368149D01*
X56802033Y-120368149D02*
X56992509Y-120368149D01*
X56992509Y-120368149D02*
X57087747Y-120320530D01*
X57087747Y-120320530D02*
X57135366Y-120272910D01*
X57135366Y-120272910D02*
X57182985Y-120177672D01*
X57182985Y-120177672D02*
X57182985Y-119939577D01*
X57182985Y-119939577D02*
X57135366Y-119844339D01*
X57135366Y-119844339D02*
X57087747Y-119796720D01*
X57087747Y-119796720D02*
X56992509Y-119749101D01*
X56992509Y-119749101D02*
X56802033Y-119749101D01*
X56802033Y-119749101D02*
X56706795Y-119796720D01*
X56706795Y-119796720D02*
X56659176Y-119844339D01*
X56659176Y-119844339D02*
X56611557Y-119939577D01*
X108577780Y-111192737D02*
X108625400Y-111240356D01*
X108625400Y-111240356D02*
X108673019Y-111383213D01*
X108673019Y-111383213D02*
X108673019Y-111478451D01*
X108673019Y-111478451D02*
X108625400Y-111621308D01*
X108625400Y-111621308D02*
X108530161Y-111716546D01*
X108530161Y-111716546D02*
X108434923Y-111764165D01*
X108434923Y-111764165D02*
X108244447Y-111811784D01*
X108244447Y-111811784D02*
X108101590Y-111811784D01*
X108101590Y-111811784D02*
X107911114Y-111764165D01*
X107911114Y-111764165D02*
X107815876Y-111716546D01*
X107815876Y-111716546D02*
X107720638Y-111621308D01*
X107720638Y-111621308D02*
X107673019Y-111478451D01*
X107673019Y-111478451D02*
X107673019Y-111383213D01*
X107673019Y-111383213D02*
X107720638Y-111240356D01*
X107720638Y-111240356D02*
X107768257Y-111192737D01*
X107673019Y-110859403D02*
X107673019Y-110192737D01*
X107673019Y-110192737D02*
X108673019Y-110621308D01*
X99190994Y-100570616D02*
X99190994Y-101380139D01*
X99190994Y-101380139D02*
X99238613Y-101475377D01*
X99238613Y-101475377D02*
X99286232Y-101522997D01*
X99286232Y-101522997D02*
X99381470Y-101570616D01*
X99381470Y-101570616D02*
X99571946Y-101570616D01*
X99571946Y-101570616D02*
X99667184Y-101522997D01*
X99667184Y-101522997D02*
X99714803Y-101475377D01*
X99714803Y-101475377D02*
X99762422Y-101380139D01*
X99762422Y-101380139D02*
X99762422Y-100570616D01*
X100667184Y-100903949D02*
X100667184Y-101570616D01*
X100429089Y-100522997D02*
X100190994Y-101237282D01*
X100190994Y-101237282D02*
X100810041Y-101237282D01*
D14*
G04 #@! TO.C,C1*
X47190252Y-102716000D02*
X46667748Y-102716000D01*
X47190252Y-101246000D02*
X46667748Y-101246000D01*
G04 #@! TO.C,C2*
X56701557Y-116729183D02*
X56179053Y-116729183D01*
X56701557Y-115259183D02*
X56179053Y-115259183D01*
G04 #@! TO.C,C3*
X47190252Y-91286000D02*
X46667748Y-91286000D01*
X47190252Y-89816000D02*
X46667748Y-89816000D01*
G04 #@! TO.C,C5*
X66394000Y-68379748D02*
X66394000Y-68902252D01*
X64924000Y-68379748D02*
X64924000Y-68902252D01*
G04 #@! TO.C,C12*
X102843000Y-69268748D02*
X102843000Y-69791252D01*
X101373000Y-69268748D02*
X101373000Y-69791252D01*
G04 #@! TO.C,D1*
X60437500Y-99385000D02*
X60437500Y-97465000D01*
X60437500Y-97465000D02*
X57752500Y-97465000D01*
X57752500Y-99385000D02*
X60437500Y-99385000D01*
G04 #@! TO.C,D4*
X66376500Y-83129000D02*
X66376500Y-81209000D01*
X66376500Y-81209000D02*
X63691500Y-81209000D01*
X63691500Y-83129000D02*
X66376500Y-83129000D01*
G04 #@! TO.C,F1*
X107371285Y-103926735D02*
X107371285Y-105130863D01*
X105551285Y-103926735D02*
X105551285Y-105130863D01*
G04 #@! TO.C,Q3*
X48787000Y-74864000D02*
X48787000Y-68854000D01*
X55607000Y-72614000D02*
X55607000Y-68854000D01*
X48787000Y-68854000D02*
X50047000Y-68854000D01*
X55607000Y-68854000D02*
X54347000Y-68854000D01*
G04 #@! TO.C,R1*
X58597436Y-94388000D02*
X59051564Y-94388000D01*
X58597436Y-95858000D02*
X59051564Y-95858000D01*
G04 #@! TO.C,R8*
X106072000Y-64846564D02*
X106072000Y-64392436D01*
X107542000Y-64846564D02*
X107542000Y-64392436D01*
G04 #@! TO.C,R9*
X101373000Y-64893564D02*
X101373000Y-64439436D01*
X102843000Y-64893564D02*
X102843000Y-64439436D01*
G04 #@! TO.C,R10*
X50549436Y-75973000D02*
X51003564Y-75973000D01*
X50549436Y-77443000D02*
X51003564Y-77443000D01*
G04 #@! TO.C,R11*
X50930436Y-57685000D02*
X51384564Y-57685000D01*
X50930436Y-59155000D02*
X51384564Y-59155000D01*
G04 #@! TO.C,R12*
X64392436Y-77116000D02*
X64846564Y-77116000D01*
X64392436Y-78586000D02*
X64846564Y-78586000D01*
G04 #@! TO.C,U1*
X45532000Y-93096000D02*
X51542000Y-93096000D01*
X47782000Y-99916000D02*
X51542000Y-99916000D01*
X51542000Y-93096000D02*
X51542000Y-94356000D01*
X51542000Y-99916000D02*
X51542000Y-98656000D01*
G04 #@! TO.C,U2*
X45532000Y-104667000D02*
X51542000Y-104667000D01*
X47782000Y-111487000D02*
X51542000Y-111487000D01*
X51542000Y-104667000D02*
X51542000Y-105927000D01*
X51542000Y-111487000D02*
X51542000Y-110227000D01*
G04 #@! TO.C,D5*
X57515000Y-104177000D02*
X55515000Y-104177000D01*
X57515000Y-104177000D02*
X57515000Y-108077000D01*
X55515000Y-104177000D02*
X55515000Y-108077000D01*
G04 #@! TO.C,C8*
X66394000Y-72443748D02*
X66394000Y-72966252D01*
X64924000Y-72443748D02*
X64924000Y-72966252D01*
G04 #@! TO.C,R2*
X61495000Y-72894564D02*
X61495000Y-72440436D01*
X62965000Y-72894564D02*
X62965000Y-72440436D01*
D11*
G04 #@! TO.C,S2*
X75869000Y-89001000D02*
X75869000Y-95199000D01*
X75869000Y-95199000D02*
X77768000Y-95199000D01*
X77768000Y-89001000D02*
X75869000Y-89001000D01*
X80168000Y-89001000D02*
X82067000Y-89001000D01*
X82067000Y-89001000D02*
X82067000Y-95199000D01*
X82067000Y-95199000D02*
X80168000Y-95199000D01*
D15*
G04 #@! TO.C,IC2*
X98862000Y-72960000D02*
X100412000Y-72960000D01*
X100762000Y-73145000D02*
X103962000Y-73145000D01*
X100762000Y-81795000D02*
X100762000Y-73145000D01*
X103962000Y-73145000D02*
X103962000Y-81795000D01*
X103962000Y-81795000D02*
X100762000Y-81795000D01*
G04 #@! TO.C,ANT1*
X68736000Y-66232000D02*
X68736000Y-66232000D01*
X68736000Y-66432000D02*
X68736000Y-66432000D01*
D11*
X69836000Y-58882000D02*
X87836000Y-58882000D01*
X69836000Y-65132000D02*
X69836000Y-58882000D01*
X69836000Y-83882000D02*
X69836000Y-84382000D01*
X69836000Y-84382000D02*
X71836000Y-84382000D01*
X85836000Y-84382000D02*
X87836000Y-84382000D01*
X87836000Y-58882000D02*
X87836000Y-65132000D01*
X87836000Y-84382000D02*
X87836000Y-83882000D01*
D15*
X68736000Y-66432000D02*
G75*
G03*
X68736000Y-66232000I0J100000D01*
G01*
X68736000Y-66232000D02*
G75*
G03*
X68736000Y-66432000I0J-100000D01*
G01*
D14*
G04 #@! TO.C,C6*
X108526252Y-74395000D02*
X108003748Y-74395000D01*
X108526252Y-72925000D02*
X108003748Y-72925000D01*
G04 #@! TO.C,C4*
X62433000Y-68914252D02*
X62433000Y-68391748D01*
X63903000Y-68914252D02*
X63903000Y-68391748D01*
G04 #@! TO.C,C10*
X106603000Y-88541748D02*
X106603000Y-89064252D01*
X105133000Y-88541748D02*
X105133000Y-89064252D01*
D15*
G04 #@! TO.C,Q1*
X97043000Y-86078000D02*
X98093000Y-86078000D01*
X98443000Y-86253000D02*
X98793000Y-86253000D01*
X98443000Y-88353000D02*
X98443000Y-86253000D01*
X98793000Y-86253000D02*
X98793000Y-88353000D01*
X98793000Y-88353000D02*
X98443000Y-88353000D01*
D14*
G04 #@! TO.C,R3*
X111320316Y-104922283D02*
X111320316Y-104468155D01*
X112790316Y-104922283D02*
X112790316Y-104468155D01*
G04 #@! TO.C,R4*
X112686926Y-84184291D02*
X112686926Y-84638419D01*
X111216926Y-84184291D02*
X111216926Y-84638419D01*
G04 #@! TO.C,C11*
X106629252Y-86488000D02*
X106106748Y-86488000D01*
X106629252Y-85018000D02*
X106106748Y-85018000D01*
G04 #@! TO.C,U3*
X100318000Y-89143000D02*
X96868000Y-89143000D01*
X100318000Y-89143000D02*
X102268000Y-89143000D01*
X100318000Y-99263000D02*
X98368000Y-99263000D01*
X100318000Y-99263000D02*
X102268000Y-99263000D01*
G04 #@! TO.C,Q2*
X90191591Y-102632522D02*
X89541591Y-102632522D01*
X90191591Y-102632522D02*
X90841591Y-102632522D01*
X90191591Y-105752522D02*
X89541591Y-105752522D01*
X90191591Y-105752522D02*
X90841591Y-105752522D01*
X89029091Y-102682522D02*
X88789091Y-102352522D01*
X89269091Y-102352522D01*
X89029091Y-102682522D01*
G36*
X89029091Y-102682522D02*
G01*
X88789091Y-102352522D01*
X89269091Y-102352522D01*
X89029091Y-102682522D01*
G37*
G04 #@! TO.C,U5*
X64177136Y-115684381D02*
X64177136Y-115954381D01*
X64177136Y-122584381D02*
X64177136Y-122314381D01*
X70597136Y-115684381D02*
X64177136Y-115684381D01*
X70597136Y-122584381D02*
X64177136Y-122584381D01*
X62757136Y-115994381D02*
X62517136Y-115664381D01*
X62997136Y-115664381D01*
X62757136Y-115994381D01*
G36*
X62757136Y-115994381D02*
G01*
X62517136Y-115664381D01*
X62997136Y-115664381D01*
X62757136Y-115994381D01*
G37*
G04 #@! TO.C,C13*
X61717882Y-112905089D02*
X61717882Y-112382585D01*
X63187882Y-112905089D02*
X63187882Y-112382585D01*
G04 #@! TO.C,D6*
X54037271Y-120913330D02*
X54037271Y-122913330D01*
X54037271Y-120913330D02*
X58047271Y-120913330D01*
X54037271Y-122913330D02*
X58047271Y-122913330D01*
G04 #@! TO.C,C7*
X107229434Y-110764819D02*
X107229434Y-111287323D01*
X105759434Y-110764819D02*
X105759434Y-111287323D01*
G04 #@! TO.C,U4*
X99952899Y-101830797D02*
X97752899Y-101830797D01*
X99952899Y-101830797D02*
X102152899Y-101830797D01*
X99952899Y-107300797D02*
X97752899Y-107300797D01*
X99952899Y-107300797D02*
X102152899Y-107300797D01*
X96092899Y-102290797D02*
X95762899Y-102530797D01*
X95762899Y-102050797D01*
X96092899Y-102290797D01*
G36*
X96092899Y-102290797D02*
G01*
X95762899Y-102530797D01*
X95762899Y-102050797D01*
X96092899Y-102290797D01*
G37*
G04 #@! TD*
M02*
