G04 #@! TF.GenerationSoftware,KiCad,Pcbnew,7.0.11-7.0.11~ubuntu22.04.1*
G04 #@! TF.CreationDate,2024-10-06T14:21:28+01:00*
G04 #@! TF.ProjectId,jubileev2,6a756269-6c65-4657-9632-2e6b69636164,rev?*
G04 #@! TF.SameCoordinates,Original*
G04 #@! TF.FileFunction,Copper,L2,Bot*
G04 #@! TF.FilePolarity,Positive*
%FSLAX46Y46*%
G04 Gerber Fmt 4.6, Leading zero omitted, Abs format (unit mm)*
G04 Created by KiCad (PCBNEW 7.0.11-7.0.11~ubuntu22.04.1) date 2024-10-06 14:21:28*
%MOMM*%
%LPD*%
G01*
G04 APERTURE LIST*
G04 Aperture macros list*
%AMRoundRect*
0 Rectangle with rounded corners*
0 $1 Rounding radius*
0 $2 $3 $4 $5 $6 $7 $8 $9 X,Y pos of 4 corners*
0 Add a 4 corners polygon primitive as box body*
4,1,4,$2,$3,$4,$5,$6,$7,$8,$9,$2,$3,0*
0 Add four circle primitives for the rounded corners*
1,1,$1+$1,$2,$3*
1,1,$1+$1,$4,$5*
1,1,$1+$1,$6,$7*
1,1,$1+$1,$8,$9*
0 Add four rect primitives between the rounded corners*
20,1,$1+$1,$2,$3,$4,$5,0*
20,1,$1+$1,$4,$5,$6,$7,0*
20,1,$1+$1,$6,$7,$8,$9,0*
20,1,$1+$1,$8,$9,$2,$3,0*%
G04 Aperture macros list end*
G04 #@! TA.AperFunction,ComponentPad*
%ADD10RoundRect,0.249999X-0.800001X-0.800001X0.800001X-0.800001X0.800001X0.800001X-0.800001X0.800001X0*%
G04 #@! TD*
G04 #@! TA.AperFunction,ComponentPad*
%ADD11C,2.100000*%
G04 #@! TD*
G04 #@! TA.AperFunction,ComponentPad*
%ADD12RoundRect,0.249999X0.800001X0.800001X-0.800001X0.800001X-0.800001X-0.800001X0.800001X-0.800001X0*%
G04 #@! TD*
G04 #@! TA.AperFunction,ComponentPad*
%ADD13C,3.900000*%
G04 #@! TD*
G04 #@! TA.AperFunction,ConnectorPad*
%ADD14C,7.000000*%
G04 #@! TD*
G04 #@! TA.AperFunction,ComponentPad*
%ADD15C,1.638000*%
G04 #@! TD*
G04 #@! TA.AperFunction,ComponentPad*
%ADD16O,2.100000X1.000000*%
G04 #@! TD*
G04 #@! TA.AperFunction,ComponentPad*
%ADD17O,1.600000X1.000000*%
G04 #@! TD*
G04 #@! TA.AperFunction,ViaPad*
%ADD18C,0.800000*%
G04 #@! TD*
G04 #@! TA.AperFunction,Conductor*
%ADD19C,1.000000*%
G04 #@! TD*
G04 #@! TA.AperFunction,Conductor*
%ADD20C,0.250000*%
G04 #@! TD*
G04 APERTURE END LIST*
D10*
G04 #@! TO.P,J3,1,Pin_1*
G04 #@! TO.N,Net-(J3-Pin_1)*
X55880000Y-58420000D03*
D11*
G04 #@! TO.P,J3,2,Pin_2*
G04 #@! TO.N,Net-(J3-Pin_2)*
X60480000Y-58420000D03*
G04 #@! TD*
D12*
G04 #@! TO.P,SW3,1,1*
G04 #@! TO.N,Net-(R8-Pad2)*
X102108000Y-59690000D03*
D11*
G04 #@! TO.P,SW3,2,2*
G04 #@! TO.N,GND*
X97508000Y-59690000D03*
G04 #@! TD*
D13*
G04 #@! TO.P,H1,1,1*
G04 #@! TO.N,GND*
X45212000Y-58801000D03*
D14*
X45212000Y-58801000D03*
G04 #@! TD*
D13*
G04 #@! TO.P,H2,1,1*
G04 #@! TO.N,GND*
X110871000Y-124206000D03*
D14*
X110871000Y-124206000D03*
G04 #@! TD*
D13*
G04 #@! TO.P,H3,1,1*
G04 #@! TO.N,GND*
X110568000Y-58928000D03*
D14*
X110568000Y-58928000D03*
G04 #@! TD*
D13*
G04 #@! TO.P,H4,1,1*
G04 #@! TO.N,GND*
X45593000Y-124206000D03*
D14*
X45593000Y-124206000D03*
G04 #@! TD*
D15*
G04 #@! TO.P,S2,1*
G04 #@! TO.N,GND*
X78968000Y-94653000D03*
G04 #@! TO.P,S2,2*
G04 #@! TO.N,EN*
X78968000Y-89548000D03*
G04 #@! TD*
D16*
G04 #@! TO.P,USB1,13,SHIELD*
G04 #@! TO.N,GND*
X109568000Y-98953000D03*
D17*
X113748000Y-98953000D03*
D16*
X109568000Y-90313000D03*
D17*
X113748000Y-90313000D03*
G04 #@! TD*
D18*
G04 #@! TO.N,+3V3*
X103868000Y-87953000D03*
X107315000Y-83693000D03*
X99868000Y-91553000D03*
X67945000Y-83820000D03*
G04 #@! TO.N,EN*
X101068000Y-86578000D03*
X85868000Y-85653000D03*
G04 #@! TO.N,DTR*
X96168000Y-88578000D03*
X96168000Y-87128000D03*
G04 #@! TO.N,LED_RING*
X82804000Y-67691000D03*
X59182000Y-76708000D03*
G04 #@! TO.N,GND*
X91821000Y-81026000D03*
X93568000Y-86353000D03*
X72771000Y-80645000D03*
X54568000Y-90153000D03*
X78473950Y-108116350D03*
X67818000Y-72771000D03*
X67437000Y-82169000D03*
X94334851Y-104892075D03*
X79373950Y-108116350D03*
X80473950Y-111716350D03*
X61668000Y-70253000D03*
X55668000Y-93753000D03*
X78673950Y-111716350D03*
X54768000Y-93753000D03*
X82968000Y-81153000D03*
X80273950Y-108116350D03*
X73152000Y-72771000D03*
X56368000Y-90153000D03*
X79573950Y-111716350D03*
X56568000Y-93753000D03*
X67945000Y-86995000D03*
X94343932Y-111993603D03*
X55468000Y-90153000D03*
X58618000Y-68453000D03*
X93668000Y-89453000D03*
G04 #@! TO.N,IO0*
X87868000Y-86753000D03*
X91368000Y-87853000D03*
G04 #@! TO.N,Net-(Q2-D)*
X106475986Y-107996915D03*
X94275185Y-102951615D03*
G04 #@! TO.N,Net-(F1-Pad1)*
X106468000Y-98053000D03*
X106468000Y-93853000D03*
G04 #@! TO.N,CC1*
X100105883Y-103786101D03*
X112055316Y-101656529D03*
G04 #@! TO.N,CC2*
X100154960Y-105320859D03*
X111951926Y-87368726D03*
G04 #@! TD*
D19*
G04 #@! TO.N,+3V3*
X99868000Y-91553000D02*
X99868000Y-90053000D01*
X107188000Y-83820000D02*
X107315000Y-83693000D01*
X101968000Y-87953000D02*
X103868000Y-87953000D01*
X99868000Y-90053000D02*
X101968000Y-87953000D01*
X67945000Y-83820000D02*
X107188000Y-83820000D01*
D20*
G04 #@! TO.N,EN*
X85893001Y-85627999D02*
X100117999Y-85627999D01*
X100117999Y-85627999D02*
X100143000Y-85653000D01*
X101068000Y-86578000D02*
X100143000Y-85653000D01*
X85868000Y-85653000D02*
X85893001Y-85627999D01*
G04 #@! TO.N,DTR*
X96168000Y-88578000D02*
X96168000Y-87128000D01*
D19*
G04 #@! TO.N,LED_RING*
X73787000Y-76708000D02*
X82804000Y-67691000D01*
X59182000Y-76708000D02*
X73787000Y-76708000D01*
G04 #@! TO.N,GND*
X79373950Y-108116350D02*
X79373950Y-111516350D01*
X91694000Y-81153000D02*
X91821000Y-81026000D01*
X67437000Y-82169000D02*
X66744990Y-82861010D01*
X67818000Y-72771000D02*
X73152000Y-72771000D01*
X66744990Y-85794990D02*
X67945000Y-86995000D01*
X56368000Y-93553000D02*
X56568000Y-93753000D01*
X54568000Y-93553000D02*
X54768000Y-93753000D01*
X55468000Y-93553000D02*
X55668000Y-93753000D01*
X66744990Y-82861010D02*
X66744990Y-85794990D01*
X60418000Y-70253000D02*
X58618000Y-68453000D01*
X56368000Y-90153000D02*
X56368000Y-93553000D01*
X61668000Y-70253000D02*
X65300000Y-70253000D01*
D20*
X94334851Y-111984522D02*
X94343932Y-111993603D01*
D19*
X93668000Y-89453000D02*
X93668000Y-86578010D01*
X54568000Y-90153000D02*
X54568000Y-93553000D01*
X82968000Y-81153000D02*
X91694000Y-81153000D01*
X61668000Y-70253000D02*
X60418000Y-70253000D01*
X80273950Y-108116350D02*
X80273950Y-111516350D01*
D20*
X94334851Y-104892075D02*
X94334851Y-111984522D01*
D19*
X71247000Y-82169000D02*
X72771000Y-80645000D01*
X78473950Y-108116350D02*
X78473950Y-111516350D01*
X55468000Y-90153000D02*
X55468000Y-93553000D01*
X67437000Y-82169000D02*
X71247000Y-82169000D01*
X65300000Y-70253000D02*
X67818000Y-72771000D01*
X93668000Y-86578010D02*
X93568000Y-86478010D01*
D20*
G04 #@! TO.N,IO0*
X88968000Y-87853000D02*
X91368000Y-87853000D01*
X87868000Y-86753000D02*
X88968000Y-87853000D01*
D19*
G04 #@! TO.N,Net-(Q2-D)*
X106475986Y-107996915D02*
X99320485Y-107996915D01*
X99320485Y-107996915D02*
X94275185Y-102951615D01*
G04 #@! TO.N,Net-(F1-Pad1)*
X106468000Y-98053000D02*
X106468000Y-93853000D01*
D20*
G04 #@! TO.N,CC1*
X109925744Y-103786101D02*
X112055316Y-101656529D01*
X100105883Y-103786101D02*
X109925744Y-103786101D01*
G04 #@! TO.N,CC2*
X112780316Y-100721586D02*
X111951926Y-99893196D01*
X112780316Y-101956834D02*
X112780316Y-100721586D01*
X111951926Y-99893196D02*
X111951926Y-87368726D01*
X109416291Y-105320859D02*
X112780316Y-101956834D01*
X100154960Y-105320859D02*
X109416291Y-105320859D01*
G04 #@! TD*
M02*
